<svg xmlns="http://www.w3.org/2000/svg" viewBox="0 0 223.2 152.8"><path fill="#7BC143" d="M1.3 112.5c-3 6.1-.5 13.4 5.6 16.4 6.1 3 13.4.5 16.4-5.6l4.9-9.9-10.5-34.3-16.4 33.4zM69.5 1.3c-6.1-3-13.4-.5-16.4 5.6l-19.6 40L44 81.2l31.2-63.6c2.9-6 .4-13.4-5.7-16.3z"/><path fill="#DA1963" d="M37.5 144.1c2 6.5 8.8 10.1 15.3 8.1s10.1-8.8 8.1-15.3l-17-55.8-15.8 32.2 9.4 30.8zM26.6 24.4c-2-6.5-8.8-10.1-15.3-8.1S1.2 25.1 3.2 31.6l14.5 47.6L33.5 47l-6.9-22.6z"/><path fill="#49A948" d="M17.7 79.1l10.4 34.3 15.8-32.2-10.4-34.3"/><g fill="#9C9EA1"><path d="M78.6 89.4H59.8v-1.1c0-4.7 1.9-7.8 6.4-10.8 2.4-1.6 3.8-2.5 4.4-2.9.6-.5 1.1-1 1.5-1.7.4-.7.6-1.5.6-2.3 0-2.1-1.4-3.5-3.4-3.5-2.5 0-3.9 1.7-4 5h-5.5c.1-3.6.9-5.6 3-7.3 1.7-1.4 3.9-2.1 6.5-2.1 5.7 0 9.3 3 9.3 7.7 0 3.7-1.9 6.3-7.1 9.7-3.9 2.5-4.4 3-4.8 4.8h11.9v4.5zM86.4 81.3c0 2.6 1.7 4.2 4.3 4.2 2.4 0 4-1.4 4-3.5 0-2.5-1.6-3.5-5.6-3.5h-.6V74h.5c3.9 0 5.4-1 5.4-3.4 0-2-1.5-3.4-3.7-3.4-2.6 0-4 1.5-4 4.4H81c.2-3.4 1-5.2 3-6.8 1.7-1.4 4-2.1 6.8-2.1 5.5 0 9.2 2.9 9.2 7.2 0 3.1-1.8 5.4-4.9 6.2 1.1.3 1.5.4 2.1.7 2.1 1.1 3.1 3 3.1 5.5 0 4.7-3.7 7.7-9.6 7.7-6.4 0-10.1-3.4-10.1-9.3h5.7c.1.2.1.4.1.6zM112.1 68.8c2.9 0 5.2.8 6.7 2.3 1.4 1.5 1.9 3.1 1.9 6.6 0 .3 0 1.2-.1 2.9v1.9c0 3.1.2 5.2.5 6.9h-4.7c-.2-1.1-.2-1.5-.2-2.2v-.8c-1.4 2.5-3.5 3.5-6.8 3.5-4.3 0-7.2-2.5-7.2-6.1 0-1.5.6-2.9 1.5-3.9 1.2-1.2 2.6-1.8 5.3-2.4 2.1-.4 4.4-.7 6.3-.8 0-2.8-1-4-3.3-4-2.2 0-3.3 1-3.4 2.9H103c.3-4.2 3.7-6.8 9.1-6.8zm2.6 11.7l-1.9.3c-3.5.5-4.8 1.3-4.8 2.9 0 1.4 1.2 2.4 3 2.4 2.9 0 4.4-1.9 4.4-5.6h-.7zM129.7 71.9c1.4-1.9 3.4-2.9 5.8-2.9 2.9 0 5.4 1.5 6.2 3.9.5 1.2.6 2.2.6 5.2v11.4h-5.5V77.7c0-3.2-.9-4.5-3.2-4.5-2.5 0-3.7 1.9-3.7 5.9v10.4h-5.5v-20h5.2v2.4zM164.3 89.4h-5.2v-2.6c-1.3 2.1-3.3 3.1-5.8 3.1-4.8 0-8.2-4.3-8.2-10.4 0-6.3 3.2-10.5 8-10.5 2.7 0 4.5.9 5.8 3V61.8h5.5v27.6zm-9.7-4c2.5 0 4.2-2.4 4.2-6 0-3.7-1.6-5.9-4.1-5.9-2.6 0-4.2 2.3-4.2 5.9 0 3.5 1.8 6 4.1 6zM199.7 89.4h-5.5V67.2l-6.7 22.2h-6l-6.8-22.2v22.2h-5.5V61.8h9.2l6.3 20.9 6.2-20.9h8.8v27.6zM213.5 89.9c-6.2 0-10.2-4.1-10.2-10.6 0-6.2 4-10.4 10-10.4s9.9 4.1 9.9 10.9v1.3H209c.1 2.9 1.8 4.6 4.6 4.6 1.9 0 3.1-.8 3.6-2.4h5.9c-1.2 4.3-4.6 6.6-9.6 6.6zm4-12.8c-.1-2.4-1.7-4.1-4.2-4.1-2.4 0-3.9 1.4-4.3 4.1h8.5z"/></g></svg>
