<svg id="dgfn-logo" xmlns="http://www.w3.org/2000/svg" viewBox="0 0 778.08 229.29">
  
  <g id="bottom-text">
    <rect id="light-box" x="1.1" y="121.43" width="533.67" height="65.93" fill="#fff" stroke="#273777" stroke-miterlimit="3.86" stroke-width="1.7"/>
    <path d="M98,142.07c.41-2.58,2-3.24,4.54-3.24.75,0,1.48.09,2.23.14l.79-3.71a17.12,17.12,0,0,0-3.1-.47c-3.34,0-7.53,1.36-8.77,6.53l-1,4.51H88.17l-.66,3.1h4.61l-4.36,20.5h4.46l4.36-20.5H102l.66-3.1H97.24Z" transform="translate(0 -0.02)" fill="#273777"/>
    <polygon points="126.12 135.48 121.84 135.48 120.82 140.27 125.1 140.27 126.12 135.48" fill="#273777"/>
    <path d="M120.55,158a20.26,20.26,0,0,1-2.07,5.55,7.19,7.19,0,0,1-6,3.38c-4.28,0-4.58-3-3.71-7.1l3-14h-4.47l-3.36,15.79c-1,4.75,1,8.51,5.95,8.51a11.26,11.26,0,0,0,9-4.18h.09l-.74,3.48h4.37l5-23.6h-4.47Z" transform="translate(0 -0.02)" fill="#273777"/>
    <polygon points="117.28 135.48 113.01 135.48 111.99 140.27 116.26 140.27 117.28 135.48" fill="#273777"/>
    <path d="M139.72,150.39h-.09l1-4.56h-4.46l-5,23.6h4.46l2.49-11.7c1.06-5,2.69-8,8.37-8.18a5,5,0,0,1,1.88.23l.9-4.23c-.52,0-1,0-1.54,0A8.43,8.43,0,0,0,139.72,150.39Z" transform="translate(0 -0.02)" fill="#273777"/>
    <polygon points="184.99 162.08 184.9 162.17 171.97 135.48 161.16 135.48 161.16 169.41 167.98 169.41 167.98 141.3 168.07 141.21 181.47 169.41 191.81 169.41 191.81 135.48 184.99 135.48 184.99 162.08" fill="#273777"/>
    <path d="M219.15,155a12.89,12.89,0,0,0-1.18-4.23c-2-4.14-5.64-5.64-10.06-5.64-7.19,0-11.33,5.45-11.33,12.55,0,7.9,3.24,12.46,11.33,12.46,5.5,0,10.06-1.93,10.67-7.76h-6.35c-.66,2.16-1.88,3.05-4.32,3.05-3.62,0-4-2.87-4-5.92h15.46A35.71,35.71,0,0,0,219.15,155Zm-15.28-.19c.09-2.58.8-5,4-5,3.43,0,4.14,2.4,4.14,5Z" transform="translate(0 -0.02)" fill="#273777"/>
    <path d="M236.52,145.13a8,8,0,0,0-6.3,3.43h-.09l-.14-2.73h-7.14c.09,1.55.24,3.15.24,4.7v27.92h7.05V166.09h.09a7.73,7.73,0,0,0,7.19,4c6.91,0,10.15-6.44,10.15-12.5C247.57,151.29,243.86,145.13,236.52,145.13Zm-1.32,20.31c-3.81,0-5.08-4.56-5.08-7.8s1.27-7.8,5.08-7.8c4.51,0,5.08,4.18,5.08,7.8S239.72,165.44,235.21,165.44Z" transform="translate(0 -0.02)" fill="#273777"/>
    <path d="M266.87,145.13c-3.57,0-5.78,1.41-7.24,3.57l-.09-.09V135.49h-7v33.94h7.05v-14.2c.09-3.43,2-5.41,4.23-5.41,3.48,0,4.18,2.87,4.23,5.41v14.2h7.05V154.06a16.11,16.11,0,0,0-.47-3.76C273.78,146.87,269.22,145.13,266.87,145.13Z" transform="translate(0 -0.02)" fill="#273777"/>
    <path d="M287.3,150.11h-.09l-.14-4.28h-6.44c.09,1.74.23,3.71.23,4.7l0,18.9h7v-11.7a8.44,8.44,0,0,1,.94-4.18,5.08,5.08,0,0,1,3.43-1.74h3.05v-6.25C291.82,145.46,288.81,146.4,287.3,150.11Z" transform="translate(0 -0.02)" fill="#273777"/>
    <path d="M310.79,145.13c-7.71,0-12.32,5.08-12.32,12.5s4.61,12.5,12.32,12.5,12.31-5.08,12.31-12.5S318.5,145.13,310.79,145.13Zm0,20.31c-4.33,0-5-4-5-7.8s.71-7.8,5-7.8,5,4,5,7.8S315.11,165.44,310.79,165.44Z" transform="translate(0 -0.02)" fill="#273777"/>
    <rect x="328.12" y="135.48" width="7.05" height="33.94" fill="#273777"/>
    <path d="M352.54,145.13c-7.71,0-12.32,5.08-12.32,12.5s4.61,12.5,12.32,12.5,12.32-5.08,12.32-12.5S360.25,145.13,352.54,145.13Zm0,20.31c-4.32,0-5-4-5-7.8s.71-7.8,5-7.8,5,4,5,7.8S356.87,165.44,352.54,165.44Z" transform="translate(0 -0.02)" fill="#273777"/>
    <path d="M385.62,148.56h-.09c-1.13-2.4-3.15-3.43-6.3-3.43-6.58,0-10,6.06-10,12.08,0,5.73,3.29,11.75,9.68,11.75a7.45,7.45,0,0,0,6.63-3.24h.09c.28,3.43.47,8.32-4.89,8.32-1.93,0-3.81-.8-3.9-2.92h-6.68c.14,6.35,5.73,7.62,11,7.62,10.34.09,11.56-5.92,11.56-11.42V145.83h-7.05Zm-4.56,15.7c-3.85,0-4.56-3.95-4.56-7,0-3.48.71-7.43,4.56-7.43s4.56,3.95,4.56,7.43C385.62,160.31,384.91,164.26,381.06,164.26Z" transform="translate(0 -0.02)" fill="#273777"/>
    <rect x="398.34" y="135.48" width="7.52" height="6.06" fill="#273777"/>
    <rect x="398.57" y="145.82" width="7.05" height="23.6" fill="#273777"/>
    <path d="M421.92,165.44c-3.62,0-4-2.87-4-5.92h15.46a35.8,35.8,0,0,0-.19-4.51,12.84,12.84,0,0,0-1.18-4.23c-2-4.14-5.64-5.64-10.06-5.64-7.19,0-11.33,5.45-11.33,12.55,0,7.9,3.24,12.46,11.33,12.46,5.5,0,10.06-1.93,10.67-7.76h-6.34C425.59,164.54,424.37,165.44,421.92,165.44Zm0-15.61c3.43,0,4.14,2.4,4.14,5h-8.18C418,152.23,418.68,149.83,421.92,149.83Z" transform="translate(0 -0.02)" fill="#273777"/>
  </g>
  <g id="upper-text">
    <rect id="dark-box" x="0.85" y="43.61" width="533.92" height="68" fill="#273777" stroke="#273777" stroke-miterlimit="3.86" stroke-width="1.7"/>
    <path d="M45.06,63c-2.73-1.74-6.06-2-9.21-2.07H24.56V94.84H35.85c3.15-.09,6.49-.33,9.21-2.07,4.94-3.15,7.19-8.46,7.19-14.9S50,66.12,45.06,63Zm-.33,24c-1.32,1.93-3.85,3.86-8.6,3.86H29.26V64.95h6.86c4.75,0,7.29,1.93,8.6,3.86a15.14,15.14,0,0,1,2.59,9.07A15.14,15.14,0,0,1,44.73,86.94Z" transform="translate(0 -0.02)" fill="#fff"/>
    <path d="M67.7,70.54c-7.47,0-11,5.78-11,12.69s3,12.32,10.58,12.32c5.64,0,9.78-2.68,10.48-8H73.1c-.52,3.43-2.26,4.79-5.73,4.79-4.56,0-6.25-4.28-5.92-8.41H78.09V81.68C78.09,75.15,74.75,70.68,67.7,70.54ZM61.45,80.79c0-3.85,2.21-7,5.92-7,4.32,0,6.11,3.06,6,7Z" transform="translate(0 -0.02)" fill="#fff"/>
    <path d="M100.54,83.37a17.48,17.48,0,0,1-.89,5.55,5.6,5.6,0,0,1-5.27,3.39c-4.28,0-5.22-3-5.22-7.1v-14H84.7V87c0,4.75,2.82,8.51,7.76,8.51,3.29,0,6.3-1.22,8.08-4.18h.09v3.48H105V71.24h-4.46Z" transform="translate(0 -0.02)" fill="#fff"/>
    <path d="M118.1,64.8l-4.47,1.41v5l-4-.14v3.34l4,0v15c0,3.15.24,3.24,1,4.37a4.26,4.26,0,0,0,2.63,1.55,16.16,16.16,0,0,0,3,.23c1,0,2-.23,3.05-.28V91.83a10,10,0,0,1-2.35.28c-1.6,0-2.91-.8-2.91-2.49V74.39l5.45,0V71.1l-5.45.14Z" transform="translate(0 -0.02)" fill="#fff"/>
    <path d="M137.73,80.88c-1.69-.52-5.73-.71-5.73-3.34s1.93-3.76,4.32-3.76c2.59,0,4.89,1,4.7,4h4.7c.33-5.36-4.7-7.24-9.17-7.24-4.28,0-9.26,2.21-9.26,7.15,0,9.21,14.34,5.26,14.34,10.53,0,3.06-2.68,4.09-5.31,4.09s-4.7-1.55-4.79-4.47h-4.7c0,5.45,4.09,7.71,9,7.71s10.48-1.79,10.48-7.57C146.34,82.67,141.73,82.2,137.73,80.88Z" transform="translate(0 -0.02)" fill="#fff"/>
    <path d="M160.76,92.3c-4.28,0-5.92-3.71-5.92-9.26s1.65-9.26,5.92-9.26c3.2,0,4.61,2.07,4.84,5h4.47c-.24-5.12-4-8.27-9-8.27-7.47,0-11,5.78-11,12.69s3,12.32,10.58,12.32c5.22,0,9.17-3.24,9.54-8.55h-4.46C165.56,90.38,163.73,92.3,160.76,92.3Z" transform="translate(0 -0.02)" fill="#fff"/>
    <path d="M188.26,70.54c-3.43,0-6,1.22-7.66,3.86h-.1V60.9H176V94.84h4.46V82.71a11.44,11.44,0,0,1,.75-5.45A6.36,6.36,0,0,1,186.62,74c4.18.09,5.26,2.77,5.26,6.91v14h4.47v-16C196.35,74.63,194.42,70.54,188.26,70.54Z" transform="translate(0 -0.02)" fill="#fff"/>
    <path d="M213.86,70.54c-7.47,0-11,5.78-11,12.69s3,12.32,10.58,12.32c5.64,0,9.78-2.68,10.48-8h-4.7c-.52,3.43-2.26,4.79-5.74,4.79-4.56,0-6.25-4.28-5.92-8.41h16.64V81.68C224.25,75.15,220.91,70.68,213.86,70.54Zm-6.25,10.25c0-3.85,2.21-7,5.92-7,4.33,0,6.11,3.06,6,7Z" transform="translate(0 -0.02)" fill="#fff"/>
    <path d="M259.61,80.83h7.71v9.59a21.92,21.92,0,0,1-6.77,1.08c-9.73-.19-12.36-4.94-12.74-13.63-.19-6.35,2.82-13.63,11.14-13.63,3.62,0,7.14,1.08,8,5.12h4.94c-.28-6.53-6.63-9.17-12.36-9.17s-10.76,2.07-13.73,7.24a22,22,0,0,0-2.92,10.44c0,4.79,1.32,10.48,5.08,13.77s7.61,3.9,12.41,3.9a40.71,40.71,0,0,0,11.66-2V76.79H259.61Z" transform="translate(0 -0.02)" fill="#fff"/>
    <path d="M289.58,70.54c-7.47,0-11,5.78-11,12.69s3,12.32,10.58,12.32c5.64,0,9.78-2.68,10.48-8H295c-.52,3.43-2.26,4.79-5.73,4.79-4.56,0-6.25-4.28-5.92-8.41H300V81.68C300,75.15,296.64,70.68,289.58,70.54Zm-6.25,10.25c0-3.85,2.21-7,5.92-7,4.33,0,6.11,3.06,6,7Z" transform="translate(0 -0.02)" fill="#fff"/>
    <path d="M315.28,80.88c-1.69-.52-5.73-.71-5.73-3.34s1.93-3.76,4.32-3.76c2.59,0,4.89,1,4.7,4h4.7c.33-5.36-4.7-7.24-9.17-7.24-4.28,0-9.26,2.21-9.26,7.15,0,9.21,14.34,5.26,14.34,10.53,0,3.06-2.68,4.09-5.31,4.09s-4.7-1.55-4.8-4.47h-4.7c0,5.45,4.09,7.71,9,7.71s10.48-1.79,10.48-7.57C323.88,82.67,319.28,82.2,315.28,80.88Z" transform="translate(0 -0.02)" fill="#fff"/>
    <path d="M339.2,70.54c-7.47,0-11,5.78-11,12.69s3,12.32,10.58,12.32c5.64,0,9.78-2.68,10.48-8h-4.7c-.52,3.43-2.26,4.79-5.74,4.79-4.56,0-6.25-4.28-5.92-8.41h16.64V81.68C349.59,75.15,346.26,70.68,339.2,70.54ZM333,80.79c0-3.85,2.21-7,5.92-7,4.32,0,6.11,3.06,6,7Z" transform="translate(0 -0.02)" fill="#fff"/>
    <rect x="356.3" y="60.88" width="4.47" height="33.94" fill="#fff"/>
    <rect x="369.35" y="60.88" width="4.47" height="33.94" fill="#fff"/>
    <path d="M391,80.88c-1.69-.52-5.73-.71-5.73-3.34s1.93-3.76,4.32-3.76c2.59,0,4.89,1,4.7,4H399c.33-5.36-4.7-7.24-9.17-7.24-4.28,0-9.26,2.21-9.26,7.15,0,9.21,14.34,5.26,14.34,10.53,0,3.06-2.68,4.09-5.31,4.09s-4.7-1.55-4.79-4.47h-4.7c0,5.45,4.09,7.71,9,7.71S399.6,93.76,399.6,88C399.6,82.67,395,82.2,391,80.88Z" transform="translate(0 -0.02)" fill="#fff"/>
    <path d="M414,92.3c-4.28,0-5.92-3.71-5.92-9.26s1.64-9.26,5.92-9.26c3.2,0,4.61,2.07,4.84,5h4.47c-.24-5.12-4-8.27-9-8.27-7.47,0-11,5.78-11,12.69s3,12.32,10.58,12.32c5.22,0,9.17-3.24,9.54-8.55h-4.47C418.83,90.38,417,92.3,414,92.3Z" transform="translate(0 -0.02)" fill="#fff"/>
    <path d="M441.53,70.54c-3.43,0-6,1.22-7.66,3.86h-.09V60.9h-4.46V94.84h4.46V82.71a11.45,11.45,0,0,1,.75-5.45A6.36,6.36,0,0,1,439.88,74c4.18.09,5.26,2.77,5.26,6.91v14h4.47v-16C449.62,74.63,447.69,70.54,441.53,70.54Z" transform="translate(0 -0.02)" fill="#fff"/>
    <path d="M476.25,78.58c0-6.58-4.79-8-9.64-8-4.65,0-8.7,1.83-8.93,7h4.7c0-2.44,2.16-3.76,4.42-3.76,4.75,0,5,2.4,5,6.49h-4c-5.6,0-11.47,1.93-11.47,8.56,0,4.61,4.14,6.72,8.23,6.72,3.24,0,5.88-1.27,7.33-4.23h.09c0,1.08.14,2.12.24,3.2,0,.56.85.33,1.27.33h3c-.14-2-.19-3.95-.19-5ZM465.63,92.3c-2.63,0-4.65-1.46-4.65-4.37,0-3.43,3.62-4.42,6.35-4.56h4.47C471.88,87.74,470.89,92.3,465.63,92.3Z" transform="translate(0 -0.02)" fill="#fff"/>
    <path d="M485.26,66.73v4.51h-4.61v3.1h4.61v20.5h4.47V74.35h5.45v-3.1h-5.45V67.48c-.14-2.58,1.32-3.24,3.85-3.24.75,0,1.5.09,2.26.14V60.67a18.76,18.76,0,0,0-3.2-.47C489.3,60.2,485.4,61.56,485.26,66.73Z" transform="translate(0 -0.02)" fill="#fff"/>
    <path d="M509.92,74.44V71.1l-5.45.14V64.8L500,66.22v5l-4-.14v3.34l4,0v15c0,3.15.24,3.24,1,4.37a4.26,4.26,0,0,0,2.63,1.55,16.14,16.14,0,0,0,3,.23c1,0,2-.23,3.05-.28V91.83a10,10,0,0,1-2.35.28c-1.6,0-2.91-.8-2.91-2.49V74.39Z" transform="translate(0 -0.02)" fill="#fff"/>
  </g>
  <g id="icon">
    <path id="icon-left" d="M777.91,95.34a41.07,41.07,0,0,0-.5-5.47,48.73,48.73,0,0,0-2.24-9.58,64.12,64.12,0,0,0-3.87-8.85c-1.09-2.1-2.31-4.13-3.58-6.13a121.89,121.89,0,0,0-9.43-12.74q-3.11-3.71-6.42-7.22c-2.24-2.36-4.56-4.65-7-6.83-1-.91-2-1.85-3.05-2.69a66,66,0,0,0-7.53-5.3c-2.62-1.52-5.27-3-8-4.41-2-1-4.15-1.88-6.23-2.82-3.14-1.42-6.36-2.64-9.56-3.9-1.65-.65-3.35-1.18-5-1.84a43.85,43.85,0,0,0-12.72-3.28,21.23,21.23,0,0,0-7.26.5c-4.29,1.15-5.92,3.91-5.2,7.91A17.67,17.67,0,0,0,685,31.37a53.81,53.81,0,0,0,4.5,4.58c1.67,1.46,3.27,3,4.9,4.54,2.56,2.38,5.16,4.73,7.62,7.23q2.22,2.25,4.57,4.38c.61.55,1.19,1.14,1.82,1.66,3.13,2.62,6.07,5.43,9.07,8.19,1.41,1.3,2.68,2.73,4.13,4a38.68,38.68,0,0,1,4.08,4.59,45.47,45.47,0,0,1,3.46,5,93.73,93.73,0,0,1,4.94,8.91,56.2,56.2,0,0,1,3.56,9.23,46.61,46.61,0,0,1,1.75,11.26,34.76,34.76,0,0,1-.32,5,59.93,59.93,0,0,1-1.29,7.51,105.75,105.75,0,0,1-4.21,13.6,119.77,119.77,0,0,1-5.86,13.78,52.62,52.62,0,0,1-6.08,9.35c-1.8,2.15-3.49,4.42-5.29,6.59a93.48,93.48,0,0,1-6.52,7.36l-10,9.81c-.29.29-.57.6-.88.86-2.12,1.74-3.95,3.77-5.91,5.67-1.58,1.54-3,3.29-4.47,4.93a36.34,36.34,0,0,0-2.47,3,9.56,9.56,0,0,0-2,7.71,20.68,20.68,0,0,0,3.23,7.8,6.27,6.27,0,0,0,7.74,2.28,65.6,65.6,0,0,0,7-3.54q5.16-2.84,10.38-5.56c3.25-1.69,6.46-3.46,9.74-5.1,2.21-1.11,4.36-2.36,6.48-3.63,3.59-2.14,7.17-4.3,10.56-6.75a66,66,0,0,0,8.85-7.29c.79-.81,1.53-1.69,2.33-2.49a60.14,60.14,0,0,0,5.56-6.49c2.14-2.84,4.17-5.78,6-8.83a99.45,99.45,0,0,0,6.91-13.9,101.15,101.15,0,0,0,4.25-13c1-3.87,2-7.77,2.68-11.71.56-3.09,1.07-6.17,1.41-9.29a75.64,75.64,0,0,0,.65-8.09c0-.2-.14-.47.16-.6V95.68C777.9,95.63,777.91,95.48,777.91,95.34Z" transform="translate(0 -0.02)" fill="#273777"/>
    <path id="icon-center" d="M620.09,163.82a146.94,146.94,0,0,1-8.17-14.17,87.79,87.79,0,0,1-4.06-9.33,114.51,114.51,0,0,1-3.31-11.26c-.57-2.41-1.2-4.8-1.67-7.23-.38-2-.7-4-1.07-5.93a48.62,48.62,0,0,1-.76-6.43,51.86,51.86,0,0,1,.62-11,80.29,80.29,0,0,1,2.26-9.92A53.61,53.61,0,0,1,610.59,74c1.34-2,2.63-4.07,3.92-6.12,1-1.63,2-3.27,3-4.91,2.17-3.57,4.62-7,6.43-10.75a14.33,14.33,0,0,0,1.61-9,4.3,4.3,0,0,0-1.76-3,6.22,6.22,0,0,0-5.13-.71A19.13,19.13,0,0,0,613,42.2a64.39,64.39,0,0,0-9.05,6.33,35.28,35.28,0,0,0-6,6.53,91.08,91.08,0,0,0-7,12.49c-.74,1.59-1.58,3.14-2.2,4.78-1.23,3.21-2.41,6.44-3.31,9.77a53.59,53.59,0,0,0-2,12.82c0,.26.17.57-.16.77V105c.05.06.15.11.15.17,0,2.13.2,4.25.36,6.36.1,1.32.31,2.63.4,4,.13,1.86.62,3.7.79,5.56.18,2,.59,4,.94,6q.92,5.09,2.15,10.12a107.69,107.69,0,0,0,3.4,11.32,77.58,77.58,0,0,0,4.53,10.38c1.07,2,2.09,4,3.31,5.9a65,65,0,0,0,7.15,8.83c1.84,2,3.76,3.89,5.79,5.7,2.74,2.44,5.37,5,8,7.5.79.74,1.54,1.51,2.38,2.19,1.56,1.26,2.88,1.42,3.9-.44a16.23,16.23,0,0,0,1.65-7.71,13.37,13.37,0,0,0-1.79-6.36C624.41,170.77,622.27,167.28,620.09,163.82Z" transform="translate(0 -0.02)" fill="#273777"/>
    <path id="icon-right" d="M656.31,229.31h8.59V0h-8.59Z" transform="translate(0 -0.02)" fill="#273777"/>
  </g>
</svg>
