<svg height="32" viewBox="0 0 141 32" width="141" xmlns="http://www.w3.org/2000/svg" xmlns:xlink="http://www.w3.org/1999/xlink"><mask id="a" fill="#fff"><path d="m0 .12995918h28.146943v27.76793472h-28.146943z" fill="#fff" fill-rule="evenodd"/></mask><mask id="b" fill="#fff"><path d="m.22950563.12995918h9.71311268v3.57900409h-9.71311268z" fill="#fff" fill-rule="evenodd"/></mask><mask id="c" fill="#fff"><path d="m0 31.8701714h140.734218v-31.54351018h-140.734218z" fill="#fff" fill-rule="evenodd"/></mask><g fill="none" fill-rule="evenodd"><path d="m14.0734218 27.8978939c-7.77254222 0-14.0735211-6.2161633-14.0735211-13.8840817 0-7.66791832 6.30097888-13.88408159 14.0735211-13.88408159h14.0735212v13.88408159c0 7.6679184-6.3013099 13.8840817-14.0735212 13.8840817" fill="#59a51e" mask="url(#a)" transform="translate(0 .196702)"/><path d="m22.8692732 11.6073469h-6.157v-6.07444894h-5.2775704v6.07444894h-6.15699998v5.2062041h6.15699998v6.074449h5.2775704v-6.074449h6.157z" fill="#fefefe"/><g fill="#003579"><path d="m39.0423373 19.0639673c1.7141761 0 2.8223169-.4421224 3.7454366-1.4573061.8175353-.8848979 1.2660212-2.1080816 1.2660212-3.4089796 0-1.275102-.4484859-2.4976326-1.2660212-3.3825306-.9231197-1.01518365-2.0312605-1.4573061-3.7454366-1.4573061h-1.0555141v9.7061224zm-5.6181549-13.53077546h6.7524437c4.6417464 0 8.6509788 4.00718367 8.6509788 8.66448976 0 4.6834286-4.0092324 8.6909388-8.6509788 8.6909388h-6.7524437z"/><path d="m55.7262451 14.1456c0 2.7585306 2.1898028 4.944 4.9591619 4.944 2.7428803 0 4.9578381-2.1854694 4.9578381-4.8917551 0-2.6801633-2.2149578-4.86563266-4.9578381-4.86563266-2.7173943 0-4.9591619 2.18546936-4.9591619 4.81338776m12.3967464-6.01077551c1.4775212 1.66530612 2.2953874 3.79918371 2.2953874 6.06302041 0 2.8884898-1.3193099 5.5422041-3.5614085 7.2858775-1.7406549 1.3270205-3.7980634 1.9774694-6.251 1.9774694-5.5383873 0-9.6532042-4.0071836-9.6532042-9.4197551 0-2.7056326 1.3454577-5.38579588 3.5604155-7.1033469 1.6350704-1.27542858 3.877169-1.97779592 6.1722253-1.97779592 3.0596338 0 5.5651972 1.06710204 7.4375845 3.17453061"/><path d="m55.7324014 14.1456c0 2.7585306 2.1898028 4.944 4.959162 4.944 2.7428803 0 4.957838-2.1854694 4.957838-4.8917551 0-2.6801633-2.2149577-4.86563266-4.957838-4.86563266-2.7173944 0-4.959162 2.18546936-4.959162 4.81338776m12.3967465-6.01077551c1.4775211 1.66530612 2.2950563 3.79918371 2.2950563 6.06302041 0 2.8884898-1.3193098 5.5422041-3.5610774 7.2858775-1.740655 1.3270205-3.7980634 1.9774694-6.251 1.9774694-5.5383874 0-9.6532043-4.0071836-9.6532043-9.4197551 0-2.7056326 1.3451268-5.38579588 3.5604155-7.1033469 1.6350705-1.27542858 3.8768381-1.97779592 6.1722254-1.97779592 3.0596338 0 5.5651972 1.06710204 7.4375845 3.17453061"/><path d="m80.0425556 16.0977633 4.2730282-10.56457146h4.958169l-7.4905422 17.35542856h-3.5610775l-7.3849577-17.35542856h4.9856408z"/><path d="m96.0398 9.35797551v2.88848979h5.143521v3.8249796h-5.143521v2.9923265h7.751359v3.8249796h-12.3139998v-17.35575508h12.3143308v3.82497959z"/><path d="m111.83693 13.3133388c.869831 0 1.529817-.1564082 1.951824-.4685715.501113-.3644081.869831-1.067102.869831-1.691102 0-.6246531-.368718-1.3270204-.869831-1.69142857-.422007-.31248979-1.081993-.46857142-1.951824-.46857142h-.844345v4.31967349zm9.205381 9.5751836h-5.69693l-4.352796-6.6608979v6.6608979h-4.56231v-17.35542852h7.094352c2.005113 0 3.297282.46857143 4.325655 1.53502041.94993.98906122 1.503007 2.39412244 1.503007 3.82530611 0 1.5869388-.631852 3.0703674-1.687366 3.9291429-.579887.4685714-1.133958.7281632-2.162993.9626122z"/><path d="m131.607844 10.8933551-1.925014 5.5425306h3.79674zm-3.191697 8.9769796-1.213063 3.0181224h-4.827099l6.752444-17.35542853h4.984317l6.621373 17.35542853h-4.880387l-1.134289-3.0181224z"/><path d="m9.94261831.85018776-1.05419014 2.85877551c-1.2008169-.37812245-2.49066902-.57730613-3.8000493-.57730613-1.30971126 0-2.60386619.19918368-3.80435211.57730613l-1.05452113-2.85877551c1.5370986-.47281633 3.18739437-.72032654 4.85655634-.72032654s3.31945775.24751021 4.85655634.72032654z" mask="url(#b)" transform="translate(55.605634 .196702)"/><path d="m37.2094697 31.0266449v.5387755h-3.7851549l2.8825563-4.6713469h-2.5101972v-.5394286h3.4839578l-2.8742817 4.672z"/><path d="m39.7665345 31.0266449c.6490634 0 1.1164155-.1485714 1.5122747-.4767347.4673521-.3826939.7208873-.9531429.7208873-1.5856326 0-.6406531-.2614789-1.2189388-.7129437-1.593796-.3958591-.3281632-.8711549-.4764081-1.5202183-.4764081h-.5146831v4.1325714zm-1.1088028-4.672h1.0849718c.8552676 0 1.433169.1799184 1.9402395.6014694.5937887.4848979.9105422 1.1875918.9105422 2 0 .8205714-.3167535 1.5157551-.9264296 2.0081633-.5226267.4293877-1.0770281.6011428-1.9322957.6011428h-1.0770282z"/><path d="m45.1341993 28.7686857c.7447183 0 1.1640775-.3435102 1.1640775-.9528163 0-.3203265-.142655-.6017959-.3879155-.7500408-.1899859-.1172245-.4276338-.1717551-.799662-.1717551h-.3485282v1.8746122zm2.090507 2.7967347h-.7205563l-1.5917113-2.2811428h-.1502676v2.2811428h-.5937887v-5.2107755h.8552676c.6017324 0 .9578732.0783673 1.2666831.2814694.3644155.2422857.5861761.6873469.5861761 1.1797551 0 .7888979-.5226268 1.3515102-1.3302324 1.4217143z"/><path d="m50.4311324 27.4641633-.9025986 2.0858775h1.7816972zm-1.1481901 2.6249796-.6335071 1.4765714h-.6414507l2.4310916-5.4605714 2.3754859 5.4605714h-.6490634l-.6255634-1.4765714z"/><path d="m55.1982563 30.3232327 1.4963874-3.9683266h.6414507l-2.1457817 5.5151021-2.138169-5.5151021h.6493943z"/><path d="m58.682181 28.932898c0 .6638367.2455915 1.2264489.7285 1.6404898.3958591.3435102.9105422.539102 1.409338.539102 1.2037958 0 2.1699437-.9531429 2.1699437-2.1482449 0-1.1875918-.9582042-2.1482449-2.1540564-2.1482449-1.1799648 0-2.1537253.9606531-2.1537253 2.116898m4.9015704.0313469c0 1.4919184-1.2431831 2.6951837-2.7713451 2.6951837-.7841056 0-1.5920422-.3751837-2.1063943-.9844898-.4041338-.4842449-.6179507-1.0782041-.6179507-1.7420408 0-1.4373878 1.267345-2.6638368 2.7557887-2.6638368 1.4967183 0 2.7399014 1.2182857 2.7399014 2.6951837"/><path d="m66.172657 31.565551h-.5941197v-4.6716734h-1.2746267v-.5391021h3.1513169v.5391021h-1.2825705z"/><path d="m68.7533211 26.1363592 4.1098521 4.2573061v-4.0388571h.5937888v5.4452245l-4.1098521-4.2501225v4.0156735h-.5937888z"/><path d="m77.0271746 25.940898-.3402535-.2501225.9419859-1.0155102.5309015.3516735zm.0873803 1.5232653-.9029295 2.0858775h1.7816971zm-1.1485211 2.6249796-.6331761 1.4765714h-.6417816l2.4310915-5.4605714 2.3758169 5.4605714h-.6493944l-.6255633-1.4765714z"/><path d="m84.2797711 28.7530776c.7205564 0 1.1323028-.3435103 1.1323028-.9371429 0-.6174694-.3958591-.9217959-1.1720211-.9217959h-.4359084v1.8589388zm-.4756267 2.8124081h-.5934578v-5.2107755h.9582042c.6490634 0 1.0214226.101551 1.3302324.3673469.3088099.2576327.4908522.6638368.4908522 1.0938776 0 .9139592-.6335071 1.4684082-1.6708169 1.4684082h-.5150141z"/><path d="m87.6284218 28.932898c0 .6638367.2452606 1.2264489.728169 1.6404898.3958592.3435102.9108733.539102 1.4096691.539102 1.2037957 0 2.1699436-.9531429 2.1699436-2.1482449 0-1.1875918-.9585352-2.1482449-2.1540563-2.1482449-1.1799648 0-2.1537254.9606531-2.1537254 2.116898m4.9015705.0313469c0 1.4919184-1.2431831 2.6951837-2.7713451 2.6951837-.7844366 0-1.5920423-.3751837-2.1067254-.9844898-.4038028-.4842449-.6176197-1.0782041-.6176197-1.7420408 0-1.4373878 1.2670141-2.6638368 2.7557887-2.6638368 1.4967184 0 2.7399015 1.2182857 2.7399015 2.6951837"/><path d="m94.1122042 31.5655184h.593896v-5.2107755h-.593896z" mask="url(#c)"/><path d="m98.9265268 27.3783837c-.2690916-.4222041-.4991268-.5626123-.9108733-.5626123-.4905211 0-.8708239.3438368-.8708239.8045715 0 .2269387.1108803.4140408.3323098.5626122.1903169.1250612.1903169.1250612.9108733.437551.8552676.3670204 1.1955211.7810612 1.1955211 1.4373878 0 .8982857-.728169 1.6013061-1.6784296 1.6013061-.8317676 0-1.4255563-.4917551-1.6234859-1.3436735l.5699578-.1560816c.0635493.2654694.1108802.3905306.2141478.5312653.189986.2654694.5146831.4218776.8628803.4218776.5937888 0 1.0611409-.4532245 1.0611409-1.023347 0-.320653-.142324-.5626122-.4355775-.7425306-.1979296-.1247347-.1979296-.1247347-.9340422-.4525714-.7602747-.3363266-1.0690846-.7111837-1.0690846-1.2816327 0-.7653877.6331761-1.3433469 1.4805-1.3433469.5941198 0 1.0452536.2729796 1.3623381.8124081z" mask="url(#c)"/><path d="m102.16433 25.932898-1.116415-.9296327.420021-.32.696394.5857959.689113-.5857959.411746.32zm.28531 5.632653h-.59412v-4.6716734h-1.274626v-.5391021h3.151317v.5391021h-1.282571z" mask="url(#c)"/><path d="m105.331303 28.932898c0 .6638367.24526 1.2264489.728169 1.6404898.395859.3435102.910873.539102 1.409669.539102 1.203796 0 2.169944-.9531429 2.169944-2.1482449 0-1.1875918-.958536-2.1482449-2.154057-2.1482449-1.179965 0-2.153725.9606531-2.153725 2.116898m4.90157.0313469c0 1.4919184-1.243183 2.6951837-2.771345 2.6951837-.784436 0-1.592042-.3751837-2.106725-.9844898-.403803-.4842449-.61762-1.0782041-.61762-1.7420408 0-1.4373878 1.267014-2.6638368 2.755789-2.6638368 1.496718 0 2.739901 1.2182857 2.739901 2.6951837" mask="url(#c)"/><path d="m113.138565 30.3232327 1.496388-3.9683266h.641451l-2.145782 5.5151021-2.138169-5.5151021h.649394z" mask="url(#c)"/><path d="m118.870381 25.932898-1.116416-.9296327.420022-.32.696394.5857959.689113-.5857959.411746.32zm-2.359599.2034285 4.109853 4.2573062v-4.0388572h.593788v5.4452245l-4.109852-4.2501224v4.0156734h-.593789z" mask="url(#c)"/><path d="m124.871751 27.4641633-.902929 2.0858775h1.781697zm-1.14819 2.6249796-.633507 1.4765714h-.64145l2.431091-5.4605714 2.375486 5.4605714h-.649063l-.625564-1.4765714z" mask="url(#c)"/></g></g></svg>