<?xml version="1.0" encoding="utf-8"?>
<!-- Generator: Adobe Illustrator 22.1.0, SVG Export Plug-In . SVG Version: 6.00 Build 0)  -->
<svg version="1.1" id="Layer_1" xmlns="http://www.w3.org/2000/svg" xmlns:xlink="http://www.w3.org/1999/xlink" x="0px" y="0px"
	 viewBox="0 0 208.7 82.2" style="enable-background:new 0 0 208.7 82.2;" xml:space="preserve">
<style type="text/css">
	.st0{fill:#ED1C24;}
	.st1{clip-path:url(#SVGID_2_);fill:#CCB977;}
	.st2{clip-path:url(#SVGID_4_);fill:#ED1C24;}
	.st3{clip-path:url(#SVGID_6_);}
	.st4{clip-path:url(#SVGID_8_);}
	.st5{clip-path:url(#SVGID_10_);}
	.st6{clip-path:url(#SVGID_12_);}
	.st7{clip-path:url(#SVGID_14_);}
	.st8{clip-path:url(#SVGID_16_);}
	.st9{clip-path:url(#SVGID_18_);}
	.st10{clip-path:url(#SVGID_20_);}
	.st11{clip-path:url(#SVGID_22_);}
	.st12{clip-path:url(#SVGID_24_);}
	.st13{clip-path:url(#SVGID_26_);}
	.st14{clip-path:url(#SVGID_28_);}
	.st15{clip-path:url(#SVGID_30_);}
	.st16{clip-path:url(#SVGID_32_);}
	.st17{clip-path:url(#SVGID_34_);}
	.st18{clip-path:url(#SVGID_36_);}
	.st19{clip-path:url(#SVGID_38_);}
	.st20{clip-path:url(#SVGID_40_);}
	.st21{clip-path:url(#SVGID_42_);}
	.st22{clip-path:url(#SVGID_44_);}
	.st23{clip-path:url(#SVGID_46_);}
	.st24{clip-path:url(#SVGID_48_);}
	.st25{clip-path:url(#SVGID_50_);}
	.st26{clip-path:url(#SVGID_52_);}
	.st27{clip-path:url(#SVGID_54_);}
	.st28{clip-path:url(#SVGID_56_);}
	.st29{clip-path:url(#SVGID_58_);}
	.st30{clip-path:url(#SVGID_60_);}
	.st31{clip-path:url(#SVGID_62_);}
	.st32{clip-path:url(#SVGID_64_);}
</style>
<polygon class="st0" points="62.1,0 56.3,6.4 56.3,13.7 49.2,13.7 49.2,6.4 43.3,0 37.4,6.4 37.4,13.7 30.5,13.7 30.5,6.4 24.6,0 
	18.7,6.4 18.7,13.7 11.8,13.7 11.8,6.4 5.9,0 0,6.4 0,81.8 68,81.8 68,6.4 "/>
<g>
	<g>
		<defs>
			<rect id="SVGID_1_" width="208.7" height="82.2"/>
		</defs>
		<clipPath id="SVGID_2_">
			<use xlink:href="#SVGID_1_"  style="overflow:visible;"/>
		</clipPath>
		<path class="st1" d="M5.5,19.7v24.8c0,8.8,0.7,16.6,6.9,23.6c5.3,6,13.6,10.3,21.6,10.3c8.6,0,16.9-4.5,22.4-11
			c5.5-6.6,6.2-14.5,6.2-22.9V19.7H5.5"/>
	</g>
	<g>
		<defs>
			<rect id="SVGID_3_" width="208.7" height="82.2"/>
		</defs>
		<clipPath id="SVGID_4_">
			<use xlink:href="#SVGID_3_"  style="overflow:visible;"/>
		</clipPath>
		<polygon class="st2" points="54.8,38.7 42.3,38.7 42.3,26.2 25.8,26.2 25.8,38.7 13.3,38.7 13.3,55.1 25.8,55.1 25.8,67.6 
			42.3,67.6 42.3,55.1 54.8,55.1 		"/>
	</g>
	<g>
		<defs>
			<rect id="SVGID_5_" width="208.7" height="82.2"/>
		</defs>
		<clipPath id="SVGID_6_">
			<use xlink:href="#SVGID_5_"  style="overflow:visible;"/>
		</clipPath>
		<polygon class="st3" points="89.4,55 89.4,55 89.4,43.7 91.4,43.7 91.4,57.9 88.9,57.9 81.4,46.3 81.4,46.3 81.4,57.9 79.4,57.9 
			79.4,43.7 82,43.7 		"/>
	</g>
	<g>
		<defs>
			<rect id="SVGID_7_" width="208.7" height="82.2"/>
		</defs>
		<clipPath id="SVGID_8_">
			<use xlink:href="#SVGID_7_"  style="overflow:visible;"/>
		</clipPath>
		<polygon class="st4" points="96.9,56.1 104.3,56.1 104.3,57.9 94.9,57.9 94.9,43.7 104,43.7 104,45.4 96.9,45.4 96.9,49.7 
			103.6,49.7 103.6,51.4 96.9,51.4 		"/>
	</g>
	<g>
		<defs>
			<rect id="SVGID_9_" width="208.7" height="82.2"/>
		</defs>
		<clipPath id="SVGID_10_">
			<use xlink:href="#SVGID_9_"  style="overflow:visible;"/>
		</clipPath>
		<polygon class="st5" points="114.3,54.6 114.3,54.6 118.5,43.7 121.6,43.7 121.6,57.9 119.6,57.9 119.6,46 119.6,46 114.9,57.9 
			113.6,57.9 108.9,46 108.9,46 108.9,57.9 106.9,57.9 106.9,43.7 110,43.7 		"/>
	</g>
	<g>
		<defs>
			<rect id="SVGID_11_" width="208.7" height="82.2"/>
		</defs>
		<clipPath id="SVGID_12_">
			<use xlink:href="#SVGID_11_"  style="overflow:visible;"/>
		</clipPath>
		<path class="st6" d="M139.4,50.8c0,1.1-0.2,2.1-0.6,3c-0.4,0.9-0.9,1.7-1.6,2.4c-0.7,0.7-1.5,1.2-2.4,1.5c-0.9,0.4-1.9,0.6-3,0.6
			s-2.1-0.2-3-0.6c-0.9-0.4-1.7-0.9-2.4-1.5c-0.7-0.7-1.2-1.5-1.6-2.4s-0.6-1.9-0.6-3s0.2-2.1,0.6-3s0.9-1.7,1.6-2.3
			s1.5-1.2,2.4-1.5c0.9-0.4,1.9-0.5,3-0.5s2.1,0.2,3,0.5c0.9,0.4,1.7,0.9,2.4,1.5s1.2,1.4,1.6,2.3C139.2,48.6,139.4,49.6,139.4,50.8
			 M137.3,50.8c0-0.8-0.1-1.5-0.4-2.2c-0.3-0.7-0.6-1.3-1.1-1.8s-1-0.9-1.7-1.2s-1.4-0.5-2.2-0.5s-1.6,0.2-2.2,0.5
			c-0.7,0.3-1.2,0.7-1.7,1.2s-0.8,1.1-1.1,1.8c-0.3,0.7-0.4,1.4-0.4,2.2s0.1,1.5,0.4,2.2s0.6,1.3,1.1,1.8s1,0.9,1.7,1.2
			s1.4,0.4,2.2,0.4s1.6-0.1,2.2-0.4c0.7-0.3,1.2-0.7,1.7-1.2s0.8-1.1,1.1-1.8C137.1,52.3,137.3,51.5,137.3,50.8"/>
	</g>
	<g>
		<defs>
			<rect id="SVGID_13_" width="208.7" height="82.2"/>
		</defs>
		<clipPath id="SVGID_14_">
			<use xlink:href="#SVGID_13_"  style="overflow:visible;"/>
		</clipPath>
		<path class="st7" d="M154.3,55.7c-0.6,0.8-1.3,1.4-2.2,1.9s-2,0.7-3.2,0.7c-1.1,0-2.1-0.2-3-0.6c-0.9-0.4-1.7-0.9-2.4-1.5
			c-0.7-0.7-1.2-1.5-1.6-2.4c-0.4-0.9-0.6-1.9-0.6-3s0.2-2.1,0.6-3c0.4-0.9,0.9-1.7,1.6-2.3c0.7-0.6,1.5-1.2,2.4-1.5
			c0.9-0.4,1.9-0.5,3-0.5c0.5,0,1,0,1.5,0.1s1,0.2,1.4,0.4c0.5,0.2,0.9,0.4,1.2,0.7c0.4,0.3,0.7,0.6,1,1l-1.6,1.2
			c-0.3-0.5-0.8-0.9-1.5-1.2c-0.6-0.3-1.3-0.5-2.1-0.5s-1.6,0.1-2.2,0.5c-0.7,0.3-1.2,0.7-1.7,1.2s-0.8,1.1-1.1,1.8
			s-0.4,1.4-0.4,2.2s0.1,1.6,0.4,2.2c0.2,0.7,0.6,1.3,1.1,1.8s1,0.9,1.7,1.2s1.4,0.4,2.2,0.4s1.5-0.2,2.2-0.5s1.2-0.8,1.6-1.4
			L154.3,55.7z"/>
	</g>
	<g>
		<defs>
			<rect id="SVGID_15_" width="208.7" height="82.2"/>
		</defs>
		<clipPath id="SVGID_16_">
			<use xlink:href="#SVGID_15_"  style="overflow:visible;"/>
		</clipPath>
		<polygon class="st8" points="166.3,55 166.4,55 166.4,43.7 168.4,43.7 168.4,57.9 165.9,57.9 158.4,46.3 158.3,46.3 158.3,57.9 
			156.3,57.9 156.3,43.7 158.9,43.7 		"/>
	</g>
	<g>
		<defs>
			<rect id="SVGID_17_" width="208.7" height="82.2"/>
		</defs>
		<clipPath id="SVGID_18_">
			<use xlink:href="#SVGID_17_"  style="overflow:visible;"/>
		</clipPath>
		<rect x="171.8" y="43.7" class="st9" width="2" height="14.2"/>
	</g>
	<g>
		<defs>
			<rect id="SVGID_19_" width="208.7" height="82.2"/>
		</defs>
		<clipPath id="SVGID_20_">
			<use xlink:href="#SVGID_19_"  style="overflow:visible;"/>
		</clipPath>
		<path class="st10" d="M189.4,55.7c-0.6,0.8-1.3,1.4-2.2,1.9s-2,0.7-3.2,0.7c-1.1,0-2.1-0.2-3-0.6c-0.9-0.4-1.7-0.9-2.4-1.5
			s-1.2-1.5-1.6-2.4c-0.4-0.9-0.6-1.9-0.6-3s0.2-2.1,0.6-3c0.4-0.9,0.9-1.7,1.6-2.3c0.7-0.6,1.5-1.2,2.4-1.5c0.9-0.4,1.9-0.5,3-0.5
			c0.5,0,1,0,1.5,0.1s1,0.2,1.4,0.4c0.5,0.2,0.9,0.4,1.2,0.7c0.4,0.3,0.7,0.6,1,1l-1.6,1.2c-0.3-0.5-0.8-0.9-1.5-1.2
			c-0.6-0.3-1.3-0.5-2.1-0.5s-1.6,0.1-2.2,0.5c-0.7,0.3-1.2,0.7-1.7,1.2s-0.8,1.1-1.1,1.8s-0.4,1.4-0.4,2.2s0.1,1.6,0.4,2.2
			c0.2,0.7,0.6,1.3,1.1,1.8s1,0.9,1.7,1.2s1.4,0.4,2.2,0.4s1.5-0.2,2.2-0.5s1.2-0.8,1.6-1.4L189.4,55.7z"/>
	</g>
	<g>
		<defs>
			<rect id="SVGID_21_" width="208.7" height="82.2"/>
		</defs>
		<clipPath id="SVGID_22_">
			<use xlink:href="#SVGID_21_"  style="overflow:visible;"/>
		</clipPath>
		<path class="st11" d="M192.1,57.9h-2.2l6.2-14.2h1.8l6.1,14.2h-2.2l-1.4-3.5h-6.7L192.1,57.9z M194.2,52.6h5.3l-2.6-6.7
			L194.2,52.6z"/>
	</g>
	<g>
		<defs>
			<rect id="SVGID_23_" width="208.7" height="82.2"/>
		</defs>
		<clipPath id="SVGID_24_">
			<use xlink:href="#SVGID_23_"  style="overflow:visible;"/>
		</clipPath>
		<path class="st12" d="M84.9,34.3c-0.9,0-1.8-0.2-2.5-0.5s-1.3-0.7-1.7-1.3c-0.5-0.5-0.8-1.1-1-1.8c-0.2-0.7-0.3-1.4-0.3-2.1v-9h2
			v8.8c0,0.5,0.1,1,0.2,1.4c0.1,0.5,0.3,0.9,0.6,1.3c0.3,0.4,0.6,0.7,1.1,0.9c0.4,0.2,1,0.3,1.7,0.3s1.2-0.1,1.7-0.3
			s0.8-0.5,1.1-0.9c0.3-0.4,0.5-0.8,0.6-1.3s0.2-1,0.2-1.4v-8.8h2v9c0,0.7-0.1,1.4-0.3,2.1c-0.2,0.7-0.6,1.3-1,1.8
			c-0.5,0.5-1,0.9-1.7,1.3C86.7,34.1,85.9,34.3,84.9,34.3"/>
	</g>
	<g>
		<defs>
			<rect id="SVGID_25_" width="208.7" height="82.2"/>
		</defs>
		<clipPath id="SVGID_26_">
			<use xlink:href="#SVGID_25_"  style="overflow:visible;"/>
		</clipPath>
		<polygon class="st13" points="103.8,31.1 103.8,31.1 103.8,19.7 105.8,19.7 105.8,33.9 103.3,33.9 95.8,22.3 95.8,22.3 95.8,33.9 
			93.8,33.9 93.8,19.7 96.4,19.7 		"/>
	</g>
	<g>
		<defs>
			<rect id="SVGID_27_" width="208.7" height="82.2"/>
		</defs>
		<clipPath id="SVGID_28_">
			<use xlink:href="#SVGID_27_"  style="overflow:visible;"/>
		</clipPath>
		<rect x="109.3" y="19.7" class="st14" width="2" height="14.2"/>
	</g>
	<g>
		<defs>
			<rect id="SVGID_29_" width="208.7" height="82.2"/>
		</defs>
		<clipPath id="SVGID_30_">
			<use xlink:href="#SVGID_29_"  style="overflow:visible;"/>
		</clipPath>
		<polygon class="st15" points="119.4,31.4 119.5,31.4 123.8,19.7 125.9,19.7 120.3,33.9 118.5,33.9 113,19.7 115.2,19.7 		"/>
	</g>
	<g>
		<defs>
			<rect id="SVGID_31_" width="208.7" height="82.2"/>
		</defs>
		<clipPath id="SVGID_32_">
			<use xlink:href="#SVGID_31_"  style="overflow:visible;"/>
		</clipPath>
		<polygon class="st16" points="129.6,32.2 137,32.2 137,33.9 127.6,33.9 127.6,19.7 136.7,19.7 136.7,21.5 129.6,21.5 129.6,25.7 
			136.3,25.7 136.3,27.4 129.6,27.4 		"/>
	</g>
	<g>
		<defs>
			<rect id="SVGID_33_" width="208.7" height="82.2"/>
		</defs>
		<clipPath id="SVGID_34_">
			<use xlink:href="#SVGID_33_"  style="overflow:visible;"/>
		</clipPath>
		<path class="st17" d="M141.7,33.9h-2V19.7h4.6c0.7,0,1.3,0.1,1.9,0.2c0.6,0.1,1.2,0.4,1.6,0.7c0.5,0.3,0.8,0.7,1.1,1.2
			s0.4,1.1,0.4,1.8c0,1-0.3,1.9-1,2.5c-0.6,0.6-1.5,1-2.5,1.2l4,6.5h-2.4l-3.6-6.3h-2.1V33.9z M141.7,25.9h2.3c0.5,0,0.9,0,1.3-0.1
			c0.4-0.1,0.8-0.2,1.1-0.4c0.3-0.2,0.5-0.4,0.7-0.7c0.2-0.3,0.3-0.6,0.3-1.1c0-0.4-0.1-0.8-0.3-1.1c-0.2-0.3-0.4-0.5-0.7-0.7
			s-0.6-0.3-1-0.4s-0.8-0.1-1.2-0.1h-2.4v4.6H141.7z"/>
	</g>
	<g>
		<defs>
			<rect id="SVGID_35_" width="208.7" height="82.2"/>
		</defs>
		<clipPath id="SVGID_36_">
			<use xlink:href="#SVGID_35_"  style="overflow:visible;"/>
		</clipPath>
		<polygon class="st18" points="161.4,21.5 153.4,32.2 161.5,32.2 161.5,33.9 150.9,33.9 150.9,32.2 159,21.5 151.1,21.5 
			151.1,19.7 161.4,19.7 		"/>
	</g>
	<g>
		<defs>
			<rect id="SVGID_37_" width="208.7" height="82.2"/>
		</defs>
		<clipPath id="SVGID_38_">
			<use xlink:href="#SVGID_37_"  style="overflow:visible;"/>
		</clipPath>
		<rect x="163.9" y="19.7" class="st19" width="2" height="14.2"/>
	</g>
	<g>
		<defs>
			<rect id="SVGID_39_" width="208.7" height="82.2"/>
		</defs>
		<clipPath id="SVGID_40_">
			<use xlink:href="#SVGID_39_"  style="overflow:visible;"/>
		</clipPath>
		<polygon class="st20" points="174.3,33.9 172.3,33.9 172.3,21.5 167.8,21.5 167.8,19.7 178.9,19.7 178.9,21.5 174.3,21.5 		"/>
	</g>
	<g>
		<defs>
			<rect id="SVGID_41_" width="208.7" height="82.2"/>
		</defs>
		<clipPath id="SVGID_42_">
			<use xlink:href="#SVGID_41_"  style="overflow:visible;"/>
		</clipPath>
		<polygon class="st21" points="190.8,31.1 190.8,31.1 190.8,19.7 192.8,19.7 192.8,33.9 190.3,33.9 182.8,22.3 182.7,22.3 
			182.7,33.9 180.8,33.9 180.8,19.7 183.3,19.7 		"/>
	</g>
	<g>
		<defs>
			<rect id="SVGID_43_" width="208.7" height="82.2"/>
		</defs>
		<clipPath id="SVGID_44_">
			<use xlink:href="#SVGID_43_"  style="overflow:visible;"/>
		</clipPath>
		<path class="st22" d="M196.8,33.9h-2.2l6.2-14.2h1.8l6.1,14.2h-2.2l-1.4-3.5h-6.7L196.8,33.9z M199,28.7h5.3l-2.6-6.7L199,28.7z
			 M202.5,18.6H201l2-2.9h2.3L202.5,18.6z"/>
	</g>
	<g>
		<defs>
			<rect id="SVGID_45_" width="208.7" height="82.2"/>
		</defs>
		<clipPath id="SVGID_46_">
			<use xlink:href="#SVGID_45_"  style="overflow:visible;"/>
		</clipPath>
		<path class="st23" d="M79.4,67.6h4.9c0.5,0,1.1,0.1,1.6,0.2s1,0.3,1.4,0.6c0.4,0.3,0.8,0.7,1,1.1c0.3,0.5,0.4,1,0.4,1.7
			c0,0.8-0.2,1.5-0.7,2s-1.1,0.9-1.8,1.1l0,0c0.5,0.1,0.9,0.2,1.3,0.4c0.4,0.2,0.7,0.4,1,0.7c0.3,0.3,0.5,0.6,0.7,1s0.2,0.8,0.2,1.3
			c0,0.7-0.1,1.3-0.4,1.8s-0.7,0.9-1.1,1.3s-1,0.6-1.7,0.7c-0.6,0.2-1.3,0.3-2.1,0.3h-4.7C79.4,81.8,79.4,67.6,79.4,67.6z
			 M81.3,73.6h2.6c0.4,0,0.7,0,1.1-0.1c0.3-0.1,0.6-0.2,0.9-0.4c0.3-0.2,0.5-0.4,0.6-0.7c0.1-0.3,0.2-0.6,0.2-1
			c0-0.8-0.3-1.3-0.8-1.6c-0.6-0.3-1.3-0.5-2.3-0.5h-2.3L81.3,73.6L81.3,73.6z M81.3,80.1h2.5c0.4,0,0.8,0,1.3-0.1s0.8-0.2,1.1-0.4
			c0.3-0.2,0.6-0.4,0.8-0.8c0.2-0.3,0.3-0.7,0.3-1.2c0-0.8-0.3-1.5-0.9-1.8c-0.6-0.4-1.4-0.6-2.5-0.6h-2.7L81.3,80.1L81.3,80.1z"/>
	</g>
	<g>
		<defs>
			<rect id="SVGID_47_" width="208.7" height="82.2"/>
		</defs>
		<clipPath id="SVGID_48_">
			<use xlink:href="#SVGID_47_"  style="overflow:visible;"/>
		</clipPath>
		<path class="st24" d="M94.2,81.8h-2V67.6h4.6c0.7,0,1.3,0.1,1.9,0.2s1.2,0.4,1.6,0.7c0.5,0.3,0.8,0.7,1.1,1.2
			c0.3,0.5,0.4,1.1,0.4,1.8c0,1-0.3,1.9-1,2.5c-0.6,0.6-1.5,1-2.5,1.2l4,6.5H100l-3.6-6.3h-2.1v6.4H94.2z M94.2,73.8h2.3
			c0.5,0,0.9,0,1.3-0.1s0.8-0.2,1.1-0.4c0.3-0.2,0.5-0.4,0.7-0.7c0.2-0.3,0.3-0.6,0.3-1.1c0-0.4-0.1-0.8-0.3-1.1
			c-0.2-0.3-0.4-0.5-0.7-0.7c-0.3-0.2-0.6-0.3-1-0.4s-0.8-0.1-1.2-0.1h-2.4v4.6H94.2z"/>
	</g>
	<g>
		<defs>
			<rect id="SVGID_49_" width="208.7" height="82.2"/>
		</defs>
		<clipPath id="SVGID_50_">
			<use xlink:href="#SVGID_49_"  style="overflow:visible;"/>
		</clipPath>
		<path class="st25" d="M105.2,81.8H103l6.2-14.2h1.8l6.1,14.2h-2.2l-1.4-3.5h-6.7L105.2,81.8z M107.3,76.6h5.3l-2.6-6.7L107.3,76.6
			z"/>
	</g>
	<g>
		<defs>
			<rect id="SVGID_51_" width="208.7" height="82.2"/>
		</defs>
		<clipPath id="SVGID_52_">
			<use xlink:href="#SVGID_51_"  style="overflow:visible;"/>
		</clipPath>
		<polygon class="st26" points="123.8,81.8 121.8,81.8 121.8,69.4 117.3,69.4 117.3,67.6 128.4,67.6 128.4,69.4 123.8,69.4 		"/>
	</g>
	<g>
		<defs>
			<rect id="SVGID_53_" width="208.7" height="82.2"/>
		</defs>
		<clipPath id="SVGID_54_">
			<use xlink:href="#SVGID_53_"  style="overflow:visible;"/>
		</clipPath>
		<rect x="130.3" y="67.6" class="st27" width="2" height="14.2"/>
	</g>
	<g>
		<defs>
			<rect id="SVGID_55_" width="208.7" height="82.2"/>
		</defs>
		<clipPath id="SVGID_56_">
			<use xlink:href="#SVGID_55_"  style="overflow:visible;"/>
		</clipPath>
		<path class="st28" d="M142.8,70.2c-0.3-0.4-0.7-0.7-1.1-1c-0.5-0.2-1-0.4-1.6-0.4c-0.3,0-0.6,0-1,0.1s-0.6,0.2-0.9,0.4
			c-0.3,0.2-0.5,0.4-0.7,0.7c-0.2,0.3-0.3,0.6-0.3,1s0.1,0.7,0.2,1c0.2,0.3,0.4,0.5,0.6,0.7c0.3,0.2,0.6,0.3,0.9,0.5
			c0.4,0.1,0.7,0.3,1.1,0.4c0.5,0.1,1,0.3,1.5,0.5s0.9,0.4,1.3,0.7c0.4,0.3,0.7,0.7,1,1.2s0.4,1,0.4,1.8c0,0.7-0.1,1.4-0.4,1.9
			c-0.3,0.5-0.6,1-1.1,1.3c-0.5,0.4-1,0.6-1.6,0.8c-0.6,0.2-1.2,0.3-1.8,0.3c-0.9,0-1.8-0.2-2.6-0.5s-1.5-0.9-2.1-1.5l1.5-1.3
			c0.3,0.5,0.8,0.9,1.3,1.2c0.6,0.3,1.2,0.5,1.8,0.5c0.3,0,0.7,0,1-0.1s0.6-0.2,0.9-0.4c0.3-0.2,0.5-0.5,0.7-0.8s0.3-0.7,0.3-1.1
			s-0.1-0.8-0.3-1.1c-0.2-0.3-0.4-0.5-0.7-0.7s-0.7-0.4-1.1-0.5c-0.4-0.1-0.8-0.3-1.3-0.4s-0.9-0.3-1.3-0.5
			c-0.4-0.2-0.8-0.4-1.2-0.7c-0.3-0.3-0.6-0.7-0.8-1.1s-0.3-1-0.3-1.6c0-0.7,0.1-1.3,0.4-1.8c0.3-0.5,0.7-0.9,1.1-1.3
			c0.5-0.3,1-0.6,1.6-0.7c0.6-0.2,1.2-0.2,1.8-0.2c0.8,0,1.6,0.1,2.3,0.4s1.3,0.7,1.7,1.2L142.8,70.2z"/>
	</g>
	<g>
		<defs>
			<rect id="SVGID_57_" width="208.7" height="82.2"/>
		</defs>
		<clipPath id="SVGID_58_">
			<use xlink:href="#SVGID_57_"  style="overflow:visible;"/>
		</clipPath>
		<polygon class="st29" points="149.1,80.1 155.5,80.1 155.5,81.8 147.1,81.8 147.1,67.6 149.1,67.6 		"/>
	</g>
	<g>
		<defs>
			<rect id="SVGID_59_" width="208.7" height="82.2"/>
		</defs>
		<clipPath id="SVGID_60_">
			<use xlink:href="#SVGID_59_"  style="overflow:visible;"/>
		</clipPath>
		<path class="st30" d="M158.2,81.8H156l6.2-14.2h1.8l6.1,14.2h-2.2l-1.4-3.5h-6.7L158.2,81.8z M160.3,76.6h5.3l-2.6-6.7L160.3,76.6
			z"/>
	</g>
	<g>
		<defs>
			<rect id="SVGID_61_" width="208.7" height="82.2"/>
		</defs>
		<clipPath id="SVGID_62_">
			<use xlink:href="#SVGID_61_"  style="overflow:visible;"/>
		</clipPath>
		<polygon class="st31" points="175.8,79.3 175.8,79.3 180.1,67.6 182.3,67.6 176.7,81.8 174.8,81.8 169.3,67.6 171.5,67.6 		"/>
	</g>
	<g>
		<defs>
			<rect id="SVGID_63_" width="208.7" height="82.2"/>
		</defs>
		<clipPath id="SVGID_64_">
			<use xlink:href="#SVGID_63_"  style="overflow:visible;"/>
		</clipPath>
		<path class="st32" d="M183.7,81.8h-2.2l6.2-14.2h1.8l6.1,14.2h-2.2l-1.4-3.5h-6.7L183.7,81.8z M185.9,76.6h5.3l-2.6-6.7
			L185.9,76.6z"/>
	</g>
</g>
</svg>
