<svg height="65" viewBox="0 0 286 65" width="286" xmlns="http://www.w3.org/2000/svg" xmlns:xlink="http://www.w3.org/1999/xlink"><mask id="a" fill="#fff"><path d="m0 72h302v-72h-302z" fill="#fff" fill-rule="evenodd"/></mask><mask id="b" fill="#fff"><path d="m0 72h302v-72h-302z" fill="#fff" fill-rule="evenodd"/></mask><mask id="c" fill="#fff"><path d="m0 72h302v-72h-302z" fill="#fff" fill-rule="evenodd"/></mask><mask id="d" fill="#fff"><path d="m0 72h302v-72h-302z" fill="#fff" fill-rule="evenodd"/></mask><mask id="e" fill="#fff"><path d="m0 72h302v-72h-302z" fill="#fff" fill-rule="evenodd"/></mask><mask id="f" fill="#fff"><path d="m0 72h302v-72h-302z" fill="#fff" fill-rule="evenodd"/></mask><mask id="g" fill="#fff"><path d="m0 72h302v-72h-302z" fill="#fff" fill-rule="evenodd"/></mask><mask id="h" fill="#fff"><path d="m0 72h302v-72h-302z" fill="#fff" fill-rule="evenodd"/></mask><mask id="i" fill="#fff"><path d="m0 72h302v-72h-302z" fill="#fff" fill-rule="evenodd"/></mask><mask id="j" fill="#fff"><path d="m0 72h302v-72h-302z" fill="#fff" fill-rule="evenodd"/></mask><mask id="k" fill="#fff"><path d="m0 72h302v-72h-302z" fill="#fff" fill-rule="evenodd"/></mask><mask id="l" fill="#fff"><path d="m0 72h302v-72h-302z" fill="#fff" fill-rule="evenodd"/></mask><mask id="m" fill="#fff"><path d="m0 72h302v-72h-302z" fill="#fff" fill-rule="evenodd"/></mask><mask id="n" fill="#fff"><path d="m0 72h302v-72h-302z" fill="#fff" fill-rule="evenodd"/></mask><mask id="o" fill="#fff"><path d="m0 72h302v-72h-302z" fill="#fff" fill-rule="evenodd"/></mask><mask id="p" fill="#fff"><path d="m0 72h302v-72h-302z" fill="#fff" fill-rule="evenodd"/></mask><mask id="q" fill="#fff"><path d="m0 72h302v-72h-302z" fill="#fff" fill-rule="evenodd"/></mask><mask id="r" fill="#fff"><path d="m0 72h302v-72h-302z" fill="#fff" fill-rule="evenodd"/></mask><mask id="s" fill="#fff"><path d="m0 72h302v-72h-302z" fill="#fff" fill-rule="evenodd"/></mask><mask id="t" fill="#fff"><path d="m0 72h302v-72h-302z" fill="#fff" fill-rule="evenodd"/></mask><mask id="u" fill="#fff"><path d="m0 72h302v-72h-302z" fill="#fff" fill-rule="evenodd"/></mask><mask id="v" fill="#fff"><path d="m0 72h302v-72h-302z" fill="#fff" fill-rule="evenodd"/></mask><g fill="none" fill-rule="nonzero" transform="translate(-16 -3)"><path d="m81 45.3953158c0-7.7271114-3.9688905-13.8780459-13.7458008-17.1380411-7.2288857-2.4173173-9.9368346-6.5968773-11.828247-12.7724155-2.3911758-7.72864912-9.6200615-12.4848592-16.7951266-12.4848592-11.8005677 0-22.6308256 12.8800568-22.6308256 29.9119943 0 14.3747339 10.3304944 35.0880057 35.0895434 35.0880057 18.6081145 0 29.9104566-11.8805299 29.9104566-22.6046842" fill="#f05f22"/><path d="m105.371134 28.2629179-9.2739322-15.2629179h-2.0972018v18h1.65243v-15.6337386l9.488954 15.6337386h1.858616v-18h-1.628866z" fill="#010202"/><path d="m121.753944 24.1188988h-6.606493l3.304005-9.2432021zm-4.296116-11.1188988-6.368326 17.7507178-.089502.2492822h1.702063l1.918993-5.399088h7.659284l1.944781 5.399088h1.774879l-6.457828-18z" fill="#010202"/><path d="m125 14.5077261h5.611511v16.4922739h1.775419v-16.4922739h5.61307v-1.5077261h-13z" fill="#010202"/><path d="m140 31h2v-18h-2z" fill="#010202" mask="url(#a)"/><path d="m155.00078 14.4753367c4.141483 0 7.146944 3.0993968 7.146944 7.3677601v.1933404c0 4.3947782-2.918075 7.4644304-7.097009 7.4644304-4.118075 0-7.223407-3.188631-7.223407-7.4168388v-.1918533c0-4.3665207 2.949285-7.4168388 7.173472-7.4168388m0-1.4753367c-5.130819 0-9.00078 3.8326035-9.00078 8.9159712v.1933405c0 5.0684955 3.890247 8.8906883 9.050715 8.8906883 5.102731 0 8.949285-3.8445014 8.949285-8.939767v-.1933405c0-5.0551103-3.868401-8.8668925-8.99922-8.8668925" fill="#010202" mask="url(#b)"/><path d="m178.371134 28.2629179-9.273932-15.2629179h-2.097202v18h1.65243v-15.6337386l9.488954 15.6337386h1.858616v-18h-1.628866z" fill="#010202" mask="url(#c)"/><path d="m193.753944 24.1188988h-6.606493l3.304005-9.2432021zm-4.296116-11.1188988-6.368326 17.7507178-.089502.2492822h1.702063l1.918993-5.399088h7.659284l1.944781 5.399088h1.774879l-6.457828-18z" fill="#010202" mask="url(#d)"/><path d="m201.873065 29.4922739v-16.4922739h-1.873065v18h11v-1.5077261z" fill="#010202" mask="url(#e)"/><path d="m232.57832 13h-2.39054l-8.229653 8.1986147v-8.1730785h-1.958127v17.9744638h1.958127v-8.401402l8.55473 8.401402h2.487143l-9.30762-9.2185596z" fill="#f05f24" mask="url(#f)"/><path d="m235 31h2v-18h-2z" fill="#f05f24" mask="url(#g)"/><path d="m242.953062 14.6772522h2.816505c4.593821 0 7.228468 2.611399 7.228468 7.1648003v.1940498c0 4.6301187-2.625477 7.2866455-7.204017 7.2866455h-2.840956zm2.94029-1.6772522h-4.893352v18h4.842921c5.648292 0 9.157079-3.4252047 9.157079-8.9383253v-.2196222c0-5.4544543-3.48892-8.8420525-9.106648-8.8420525z" fill="#f05f24" mask="url(#h)"/><path d="m270.077542 27.8771519-9.615419-14.7462811-.084469-.1308708h-2.377654v18h1.947486v-15.2426876l9.928268 15.2426876h2.124246v-18h-1.922458z" fill="#f05f24" mask="url(#i)"/><path d="m277.918395 22.6062176h7.0116v-1.6772522h-7.0116v-6.2517132h8.643286v-1.6772522h-10.561681v18h11v-1.6772522h-9.081605z" fill="#f05f24" mask="url(#j)"/><path d="m299.9847 13-4.787846 8.2704329-5.023166-8.2704329h-2.173688l6.216356 10.0439579v7.9560421h1.926301v-7.937991l5.857343-10.062009z" fill="#f05f24" mask="url(#k)"/><g fill="#010202"><path d="m94 61h1.8539506v-8.3571429h7.1924934v-1.506079h-7.1924934v-6.6276596h9.1460494v-1.5091185h-11z" mask="url(#l)"/><path d="m114.00078 44.4753367c4.141483 0 7.146944 3.0979096 7.146944 7.3662728v.1933405c0 4.3947782-2.918075 7.4644303-7.097009 7.4644303-4.118075 0-7.223407-3.1886309-7.223407-7.4153515v-.1918533c0-4.3665207 2.949285-7.4168388 7.173472-7.4168388m0-1.4753367c-5.130819 0-9.00078 3.8326035-9.00078 8.9159712v.1933405c0 5.0684955 3.890247 8.8906883 9.050715 8.8906883 5.102731 0 8.949285-3.8430141 8.949285-8.9412542v-.1918533c0-5.0551103-3.868401-8.8668925-8.99922-8.8668925" mask="url(#m)"/><path d="m137.268467 53.9282489c0 3.8926242-1.444944 5.55143-4.829986 5.55143-3.227493 0-4.730956-1.6633216-4.730956-5.2338184v-11.2458605h-1.707525v11.3918716c0 4.1981936 2.337719 6.6081284 6.414474 6.6081284 4.246306 0 6.585526-2.4430507 6.585526-6.8760662v-11.1239338h-1.731533z" mask="url(#n)"/><path d="m155.371134 58.2642067-9.273932-15.2642067h-2.097202v18h1.65243v-15.6335388l9.488954 15.6335388h1.858616v-18h-1.628866z" mask="url(#o)"/><path d="m165.738962 44.5077261c4.717273 0 7.422153 2.673478 7.422153 7.331926v.1975851c0 4.7359622-2.695584 7.4535168-7.397366 7.4535168h-2.975988v-14.9830279zm.125484-1.5077261h-4.864446v18h4.813323c5.666925 0 9.186677-3.4243013 9.186677-8.9384447v-.2219032c0-5.453348-3.501162-8.8396521-9.135554-8.8396521z" mask="url(#p)"/><path d="m186.753944 54.1164401h-6.606493l3.304005-9.2409018zm-4.296116-11.1164401-6.368326 17.7492189-.089502.2507811h1.702063l1.918993-5.3986321h7.659284l1.944781 5.3986321h1.774879l-6.457828-18z" mask="url(#q)"/><path d="m191 44.5077261h5.611511v16.4922739h1.775419v-16.4922739h5.61307v-1.5077261h-13z" mask="url(#r)"/><path d="m206 61h2v-18h-2z" mask="url(#s)"/><path d="m219.00078 44.4753367c4.141483 0 7.146944 3.0979096 7.146944 7.3662728v.1933405c0 4.3947782-2.918075 7.4644303-7.097009 7.4644303-4.118075 0-7.223407-3.1886309-7.223407-7.4153515v-.1918533c0-4.3665207 2.949285-7.4168388 7.173472-7.4168388m0-1.4753367c-5.130819 0-9.00078 3.8326035-9.00078 8.9159712v.1933405c0 5.0684955 3.890247 8.8906883 9.050715 8.8906883 5.102731 0 8.949285-3.8430141 8.949285-8.9412542v-.1918533c0-5.0551103-3.868401-8.8668925-8.99922-8.8668925" mask="url(#t)"/><path d="m243.371134 43v15.2629179l-9.273932-15.2629179h-2.097202v18h1.65243v-15.6337386l9.488954 15.6337386h1.858616v-18z" mask="url(#u)"/></g><path d="m251.5 57.3750718c.360206 0 .540309-.1479035.540309-.4293509v-.0129237c0-.3159104-.191538-.4408386-.540309-.4408386h-.417381v.8831132zm-.833333-1.2119472h.844768c.563179.001436.93482.2512924.93482.7596209v.0100517c0 .39776-.225843.6117174-.574614.690695l.731847 1.120046h-.461693l-.686106-1.05112h-.37307v1.05112h-.415952zm2.984562 1.3354394c0-1.2665135-.913379-2.1927053-2.151229-2.1927053-1.227844 0-2.1498.9391155-2.1498 2.205629 0 1.2751292.944826 2.16973 2.1498 2.16973 1.216409 0 2.151229-.9147042 2.151229-2.1826537zm-4.651229.0129237c0-1.3928777 1.103488-2.5114877 2.5-2.5114877 1.417953 0 2.5 1.1071223 2.5 2.498564 0 1.415853-1.103488 2.501436-2.5 2.501436-1.385077 0-2.5-1.0755313-2.5-2.4885123z" fill="#221e1f" mask="url(#v)"/></g></svg>