<svg width="555" height="555" viewBox="0 0 555 555" fill="none" xmlns="http://www.w3.org/2000/svg"><g clip-path="url(#clip0_219_751)"><circle opacity=".3" cx="277" cy="278" r="278" fill="url(#paint0_linear_219_751)"/><circle opacity=".5" cx="277" cy="278" r="239" fill="url(#paint1_linear_219_751)"/><g filter="url(#filter0_d_219_751)"><circle cx="277" cy="278" r="153" fill="url(#paint2_linear_219_751)"/></g><path d="M206.242 327c-10.701-14.653-17.122-32.76-17.241-52.297-.238-49.318 39.357-89.464 88.583-89.702 49.225-.238 89.177 39.55 89.414 88.869.119 19.536-6.064 37.763-16.646 52.534l-43.043-69.45-4.043 7.028 4.281 19.418-29.607-50.272-18.073 30.854 4.281 19.656-15.577-26.327L206.242 327z" fill="url(#paint3_radial_219_751)"/><path fill-rule="evenodd" clip-rule="evenodd" d="M182.077 129.301a6.117 6.117 0 01-.936-.705c-.1-.1-.065-.44-.031-.762.016-.153.031-.303.031-.42.17-.658.05-1.356-.328-1.92a1.492 1.492 0 00-.263-.197v-1.051a16.147 16.147 0 00-4.431-10.865 7.257 7.257 0 01-2.134-3.89v-.377c0-2.265 0-6.992-2.462-9.47a5.562 5.562 0 00-4.103-1.642c-3.447 0-5.745 1.641-5.745 9.848a13.117 13.117 0 01-1.953 6.04c-.443.853-.886 1.74-1.28 2.675a39.948 39.948 0 00-2.511 7.862 2.606 2.606 0 00-1.28 1.969l-.132.542a4.58 4.58 0 01-.886.23c-.985.197-2.626.525-2.626 2.019.005.402.049.803.131 1.198a5.263 5.263 0 01-.131 2.708.844.844 0 000 .213c0 1.851 2.757 2.184 4.624 2.409h.001l.299.037h.722a7.4 7.4 0 011.297.525 9.566 9.566 0 003.725 1.116 1.923 1.923 0 001.412-.64h.082a9.746 9.746 0 014.251-1.001h5.022c.085.334.248.643.476.902.492.51 1.181.78 1.888.739a5.251 5.251 0 004.103-2.167l.525-.541a5.8 5.8 0 011.953-.968c1.182-.427 2.397-.87 2.397-2.069 0-1.185-.916-1.808-1.682-2.329l-.025-.018zm-13.018-26.375c.952 0 1.642 1.018 1.642 2.429 0 1.412-.542 2.199-1.33 2.38.327-.275.504-.69.476-1.116 0-.673-.361-1.231-.788-1.231-.426 0-.788.542-.788 1.231-.027.426.15.841.476 1.116-.787-.197-1.329-1.149-1.329-2.38 0-1.231.689-2.429 1.641-2.429zm-3.281 8.206a9.54 9.54 0 004.005-1.838 6.409 6.409 0 00-3.184-1.444 5.04 5.04 0 00-3.283 1.641 6.137 6.137 0 002.462 1.641zm-1.641-8.206c.952 0 1.642 1.018 1.642 2.429 0 1.412-.542 2.183-1.33 2.38.327-.275.504-.69.476-1.116 0-.673-.361-1.231-.788-1.231-.426 0-.787.542-.787 1.231-.028.426.149.841.476 1.116-.788-.197-1.33-1.132-1.33-2.38 0-1.247.689-2.429 1.641-2.429zm-2.461 32.826c.197 0 .345-.164.443-.476a3.726 3.726 0 00-1.772-3.759 9.19 9.19 0 01-2.528-3.676 6.43 6.43 0 00-1.149-1.937c-.114 0-.197 0-.41.87a2.73 2.73 0 01-.607 1.346 3.285 3.285 0 01-1.641.64 3.68 3.68 0 00-1.363.427c.013.309.051.616.115.919a6.79 6.79 0 01-.082 3.282c.164.23.919.525 3.365.722h.919a7.283 7.283 0 011.641.657c.95.522 1.992.857 3.069.985zm10.901-5.4c-2.413 2.429-7.238 2.265-9.372 1.937a5.975 5.975 0 00-1.887-2.118 8.188 8.188 0 01-1.986-3.036 6.56 6.56 0 00-1.642-2.577 39.197 39.197 0 012.348-7.353c.221-.558.482-1.076.754-1.613.152-.301.307-.607.46-.931a25.3 25.3 0 001.543-3.43 6.335 6.335 0 002.987 1.543 16.507 16.507 0 004.645-1.97 30.609 30.609 0 013.561 14.69 9.955 9.955 0 00-1.411 4.841v.017zm5.754 3.2a6.88 6.88 0 012.544-1.362v-.016a4.725 4.725 0 001.346-.608c-.033-.18-.427-.459-1.05-.869a7.374 7.374 0 01-1.198-.92 2.03 2.03 0 01-.542-1.313 3.283 3.283 0 01-2.413.739h-.574a2.2 2.2 0 01-1.641-.689 2.4 2.4 0 01-.214-.279c-.147.738-.607 5.383-.607 5.875l-.016.279-.005.065c-.02.292-.059.859.169 1.117a.899.899 0 00.673.197 3.726 3.726 0 002.97-1.641l.558-.575zm46.783 344.637h-32.831a3.283 3.283 0 01-3.283-3.283v-24.623a3.283 3.283 0 013.283-3.283h32.831a3.283 3.283 0 013.283 3.283v24.623a3.283 3.283 0 01-3.283 3.283zm-31.184-3.283h3.283v-8.208a1.642 1.642 0 00-3.283 0v8.208zm4.918 0h19.698v-9.849h-19.698v9.849zm21.343 0h3.283v-8.208a1.641 1.641 0 00-3.283 0v8.208zm-6.108-19.731l1.863-2.796a.82.82 0 10-1.366-.909l-1.947 2.92a9.804 9.804 0 00-7.873 0l-1.946-2.92a.82.82 0 10-1.366.909l1.863 2.796a9.835 9.835 0 00-4.463 8.24h19.698c0-3.45-1.778-6.48-4.463-8.24zm-8.663 4.957a1.642 1.642 0 110-3.283 1.642 1.642 0 010 3.283zm6.558 0a1.641 1.641 0 110-3.283 1.641 1.641 0 010 3.283zm-13.129 19.699h19.699a1.642 1.642 0 110 3.283h-19.699a1.642 1.642 0 010-3.283zM472.978 226c.372 2.487-.647 4.922-1.992 6.646-1.44 1.846-3.917 3.277-6.313 3.203-.436-2.381.687-4.831 2.046-6.483 1.5-1.82 4.065-3.216 6.259-3.366zm4.818 33.994c1.098-1.667 1.504-2.509 2.356-4.395-6.183-2.337-7.177-11.076-1.058-14.432-1.867-2.327-4.489-3.674-6.964-3.674-1.787 0-3.011.463-4.123.883-.926.35-1.774.671-2.806.671-1.115 0-2.102-.352-3.137-.72-1.137-.406-2.331-.831-3.814-.831-2.782 0-5.739 1.687-7.613 4.575-2.637 4.06-2.189 11.698 2.085 18.209 1.532 2.329 3.573 4.946 6.245 4.971 1.106.01 1.843-.318 2.641-.673.914-.407 1.908-.849 3.628-.859 1.729-.009 2.706.438 3.607.851.778.356 1.499.686 2.598.676 2.671-.025 4.826-2.925 6.355-5.252z" fill="#ACB6CD"/><path d="M85.85 265.189c-4.148 0-7.846-1.103-11.092-3.309-3.247-2.205-5.661-5.126-7.244-8.761-.85-1.92-1.342-4.126-1.473-6.618a27.631 27.631 0 01.571-7.31 28.154 28.154 0 012.44-6.859c1.115-2.192 2.426-3.969 3.936-5.332l-.242 6.178c.161-.205.66-.319 1.495-.341.836-.022 1.349.092 1.54.341.615-1.187 1.791-2.199 3.528-3.034s3.455-1.268 5.156-1.297c-.792.659-1.668 1.748-2.628 3.265-.96 1.517-1.389 2.715-1.286 3.594.367.118.825.217 1.374.297.55.081 1.012.136 1.385.165.374.029.872.059 1.495.088.623.029.993.051 1.11.066.22.073.29.407.21 1a3.672 3.672 0 01-.671 1.66 3.558 3.558 0 01-.363.407c-.168.169-.582.429-1.242.78-.66.352-1.4.601-2.22.748l.33 4.155-3.057-1.473c-.264.631-.319 1.228-.165 1.792.154.564.418 1.052.792 1.462.374.411.854.715 1.44.913a3.6 3.6 0 001.78.142 7.039 7.039 0 002.155-.758c.69-.374 1.301-.704 1.836-.989.535-.286 1.074-.414 1.616-.385.894.058 1.55.3 1.968.725.418.425.56.902.429 1.429-.015.03-.033.07-.055.121a1.596 1.596 0 01-.187.275 1.383 1.383 0 01-.396.341c-.161.095-.392.172-.693.231-.3.058-.64.066-1.022.022-.88 1.392-1.938 2.385-3.177 2.979-1.238.594-2.774.81-4.606.648 1.085.895 2.276 1.499 3.573 1.814 1.297.315 2.532.359 3.704.132a13.538 13.538 0 003.397-1.143c1.092-.535 2.03-1.176 2.814-1.924.785-.747 1.374-1.509 1.77-2.286a8.944 8.944 0 00.858-4.233c-.059-1.487-.334-2.869-.825-4.144-.49-1.275-1.066-2.191-1.726-2.748 1.275.557 2.28 1.139 3.012 1.748.733.608 1.298 1.432 1.693 2.473.22-2.492-.201-5.005-1.264-7.541-1.063-2.536-2.598-4.617-4.606-6.244 3.884 1.129 6.904 3.177 9.058 6.145 2.155 2.968 3.261 6.761 3.32 11.378.029 1.861-.267 3.73-.89 5.606s-1.528 3.62-2.716 5.233a22.69 22.69 0 01-4.155 4.309c-1.583 1.26-3.397 2.253-5.441 2.979a18.818 18.818 0 01-6.343 1.088z" fill="#ACB6CD"/><path fill-rule="evenodd" clip-rule="evenodd" d="M112.645 374.722c-4.267 0-7.888 2.811-9.154 6.693l-5.565-9.723c3.536-4.091 8.726-6.692 14.518-6.692 7.119 0 13.331 3.92 16.671 9.722h-16.47zm6.62 9.976a6.567 6.567 0 11-13.133 0 6.567 6.567 0 0113.133 0zm-4.925 9.902c-.634.137-1.29.21-1.962.21-3.544 0-6.634-1.999-8.295-4.957l-.009.005-8.39-15.009A20.165 20.165 0 0093 384.905c0 9.754 6.866 17.863 15.863 19.492l5.477-9.797zm8.309-9.899c0-2.525-.973-4.823-2.556-6.569h11.143a19.413 19.413 0 011.162 6.569c0 10.795-8.818 19.581-19.699 19.696l8.616-14.769-.01-.005a9.708 9.708 0 001.344-4.922zm329.375-18.425l-1.863 2.795c2.685 1.76 4.463 4.79 4.463 8.241h-19.698c0-3.451 1.778-6.481 4.463-8.241l-1.863-2.795a.821.821 0 011.366-.91l1.947 2.921a9.804 9.804 0 017.872 0l1.947-2.921a.821.821 0 011.366.91zm-15.457 30.734a1.641 1.641 0 01-1.641-1.641v-16.416h19.698v16.416c0 .906-.735 1.641-1.641 1.641h-1.642v4.925a1.641 1.641 0 01-3.283 0v-4.925h-6.566v4.925a1.642 1.642 0 01-3.283 0v-4.925h-1.642zm-4.925-18.057c-.907 0-1.642.736-1.642 1.642v8.208a1.642 1.642 0 003.283 0v-8.208c0-.906-.735-1.642-1.641-1.642zm24.623 1.642a1.643 1.643 0 013.284 0v8.208a1.642 1.642 0 01-3.284 0v-8.208zm-14.772-6.566a1.642 1.642 0 100-3.284 1.642 1.642 0 000 3.284zm8.208-1.642a1.642 1.642 0 11-3.283 0 1.642 1.642 0 013.283 0zM277.778 65.083l18.057-2.517v16.156l-18.057.26v-13.9zM263 78.982v-11.58l11.491-1.553v12.973l-11.491.16zm14.778 17.181l18.057 2.517V82.524l-18.057-.26v13.9zm-3.287-.766L263 93.844v-11.58l11.491.162v12.971zm118.207 43c-10.878 0-19.698-8.82-19.698-19.699C373 107.82 381.82 99 392.698 99c10.879 0 19.699 8.82 19.699 19.698 0 10.879-8.82 19.699-19.699 19.699zm-10.645-13.97c0 3.413 2.63 5.895 5.91 5.895 3.265 0 5.968-2.526 5.968-5.939 0-3.383-2.644-5.924-5.924-5.924a5.919 5.919 0 00-5.954 5.968zm1.906-.044c0-2.349 1.758-4.24 4.033-4.24 2.261 0 4.033 1.891 4.033 4.24s-1.772 4.255-4.033 4.255c-2.275 0-4.033-1.906-4.033-4.255zm14.662 5.939c2.558 0 4.006-1.699 4.006-3.383 0-1.714-1.094-2.94-3.162-3.354l-1.464-.28c-.929-.192-1.461-.887-1.461-1.537 0-.886.87-1.684 1.994-1.684 1.226 0 2.009.916 2.216 1.743l1.683-.532c-.235-1.255-1.313-2.836-3.928-2.836-2.085 0-3.828 1.566-3.828 3.472 0 1.507 1.034 2.762 2.94 3.147l1.418.295c.977.207 1.714.739 1.714 1.684 0 .975-.946 1.625-2.097 1.625-1.39 0-2.306-.871-2.557-2.216l-1.755.473c.161 1.64 1.579 3.383 4.284 3.383h-.003zm-13.369-18.354v3.447h1.356v-3.424c0-.931.506-1.551 1.356-1.551.943 0 1.31.643 1.31 1.517v3.458h1.368v-3.792c0-1.39-.678-2.482-2.23-2.482-.942 0-1.539.345-2.137 1.012-.345-.621-.954-1.012-1.896-1.012-.482 0-1.241.184-1.827.966v-.828h-1.333v6.136h1.368v-3.412c0-.931.505-1.563 1.344-1.563.942 0 1.321.666 1.321 1.528zm11.997 3.447v-3.906c0-.414-.058-.77-.207-1.104-.402-.884-1.264-1.252-2.298-1.252-.448 0-.885.08-1.241.241-.85.368-1.322 1.149-1.379 1.666l1.241.276c.103-.586.597-1.011 1.344-1.011.805 0 1.207.448 1.207.931 0 .299-.161.517-.575.517h-.758c-1.069 0-2.551.448-2.551 1.873v.069c0 1.057.873 1.804 2.068 1.804.575 0 1.356-.196 1.804-.942v.838h1.345zm-1.345-2.482c0 .92-.597 1.494-1.528 1.494-.574 0-.977-.333-.977-.839 0-.574.667-.85 1.184-.85h1.321v.195zm5.895 2.586c1.666 0 2.62-1.069 2.896-2.011l-1.253-.402c-.183.471-.563 1.172-1.62 1.172-1.045 0-1.815-.816-1.815-1.965 0-1.161.804-1.919 1.804-1.919 1.022 0 1.471.666 1.608 1.149l1.241-.414c-.264-1.034-1.321-1.976-2.838-1.976-1.827 0-3.217 1.436-3.217 3.183 0 1.804 1.39 3.183 3.194 3.183z" fill="#ACB6CD"/><path d="M339 461.435c.233-.773.35-1.546.699-2.319.933-2.099 2.681-3.425 4.896-4.198 3.73-1.326 7.577-1.215 11.19.331.583.221 1.166.663 1.749.994.116.111.233.111.466.221 0 .111-.117.111-.117.221-.116 0-.233.111-.349.111-1.516.11-2.798.883-3.847 1.878-2.448 1.988-3.847 4.639-4.313 7.512-.816 5.192 1.166 9.279 5.595 12.483.117.11.233.11.35.331-3.264-.442-6.061-1.547-8.509-3.314-3.497-2.541-5.945-5.855-6.994-9.942-.233-.884-.466-1.878-.699-2.762-.117-.552-.117-1.105-.117-1.547z" fill="#ACB6CD"/><path d="M340 454.043c.576-.996 1.038-1.993 1.729-2.99 3.113-4.429 7.263-7.308 12.797-7.862 6.456-.775 12.336.775 17.063 5.315 2.19 2.104 3.804 4.651 4.265 7.752.461 3.101-.115 5.98-2.536 8.306-1.614 1.661-3.689 2.325-5.995 2.436-1.614 0-3.228-.111-4.842-.554-.461-.11-.922-.332-1.384-.664-.691-.443-.807-.997-.345-1.772.23-.332.461-.554.576-.775.807-1.44.807-2.879.346-4.43-.807-2.325-2.421-3.986-4.612-5.205-2.766-1.661-5.879-2.214-9.107-1.993-2.767.222-5.419.997-7.724 2.547 0-.111 0-.111-.231-.111.115 0 .115 0 0 0z" fill="#ACB6CD"/><path d="M352.921 462c1.245 5.281 4.867 8.098 9.733 9.271 3.282.704 6.564.235 9.62-1.173.226-.118.453-.118.566 0 .113.117.226.469.113.704 0 .235-.226.469-.339.704-2.377 3.403-5.433 5.868-9.394 7.041-4.187 1.291-7.696-.234-10.072-3.872-2.603-3.991-2.943-8.098-.453-12.323.113-.117.113-.235.226-.352-.113 0 0 0 0 0z" fill="#ACB6CD"/></g><defs><linearGradient id="paint0_linear_219_751" x1="277" y1="0" x2="276.434" y2="-84.496" gradientUnits="userSpaceOnUse"><stop offset=".001" stop-color="#DEE8FF"/><stop offset=".559" stop-color="#EDF3FF"/><stop offset="1" stop-color="#fff"/></linearGradient><linearGradient id="paint1_linear_219_751" x1="277" y1="39" x2="280.199" y2="516.979" gradientUnits="userSpaceOnUse"><stop offset=".001" stop-color="#DEE8FF"/><stop offset=".559" stop-color="#EDF3FF"/><stop offset="1" stop-color="#fff"/></linearGradient><linearGradient id="paint2_linear_219_751" x1="277" y1="-211.5" x2="281.3" y2="430.971" gradientUnits="userSpaceOnUse"><stop offset=".001" stop-color="#DEE8FF"/><stop offset=".466" stop-color="#EDF3FF"/><stop offset=".771" stop-color="#fff"/></linearGradient><radialGradient id="paint3_radial_219_751" cx="0" cy="0" r="1" gradientUnits="userSpaceOnUse" gradientTransform="matrix(70.99991 89.49998 -89.66764 71.1329 230.5 192.5)"><stop stop-color="#79A3FF"/><stop offset="1" stop-color="#4580FF"/></radialGradient><clipPath id="clip0_219_751"><path fill="#fff" d="M0 0h555v555H0z"/></clipPath><filter id="filter0_d_219_751" x="97" y="111" width="360" height="360" filterUnits="userSpaceOnUse" color-interpolation-filters="sRGB"><feFlood flood-opacity="0" result="BackgroundImageFix"/><feColorMatrix in="SourceAlpha" values="0 0 0 0 0 0 0 0 0 0 0 0 0 0 0 0 0 0 127 0" result="hardAlpha"/><feOffset dy="13"/><feGaussianBlur stdDeviation="13.5"/><feColorMatrix values="0 0 0 0 0.701961 0 0 0 0 0.807843 0 0 0 0 0.933333 0 0 0 1 0"/><feBlend in2="BackgroundImageFix" result="effect1_dropShadow_219_751"/><feBlend in="SourceGraphic" in2="effect1_dropShadow_219_751" result="shape"/></filter></defs></svg>