<?xml version="1.0" encoding="UTF-8"?><svg id="Ebene_2" xmlns="http://www.w3.org/2000/svg" viewBox="0 0 211.6 294.82"><g id="Layer_1"><g><g><path d="M69.22,237.85c0-5.74,4.03-11.1,9.67-11.1h1.61c5.67,0,9.74,5.4,9.74,11.1s-4,11.1-9.77,11.1h-1.58c-5.77,0-9.67-5.39-9.67-11.1Zm9.67,7.41h1.58c2.98,0,5.43-3.35,5.43-7.41s-2.39-7.41-5.4-7.41h-1.61c-2.98,0-5.3,3.29-5.3,7.41s2.33,7.41,5.3,7.41Zm-3.84-23.97h3.57v3.38h-3.57v-3.38Zm5.86-.03h3.57v3.38h-3.57v-3.38Z"/><path d="M96.75,237.85c0-7.38,4.81-11.1,9.46-11.1h1.58c4.74,0,7.91,3.66,8.31,8.09h-4.19c-.28-2.36-1.77-4.4-4.12-4.4h-1.58c-2.76,0-5.08,2.85-5.08,7.41,0,4.25,2.05,7.41,5.02,7.41h1.58c2.42,0,4.19-2.29,4.19-4.46v-.34h-5.02v-3.25h9.18v11.5h-3.81v-2.85c-.65,1.36-2.45,3.1-4.93,3.1h-1.55c-4.25,0-9.02-3.69-9.02-11.1Z"/><path d="M124.06,227h4.62l7.29,12.81c.65,1.21,1.09,2.11,1.09,2.11l.12-.03s-.09-.99-.09-2.39v-12.5h4.34v21.7h-4.62l-7.29-12.77c-.68-1.21-1.08-2.11-1.08-2.11l-.12,.03s.06,.99,.06,2.39v12.46h-4.31v-21.7Z"/></g><g><path d="M0,0V199.46c0,52.58,42.78,95.36,95.36,95.36h20.88c52.58,0,95.36-42.78,95.36-95.36V0H0ZM207.1,199.46c0,50.1-40.76,90.86-90.86,90.86h-20.88c-50.1,0-90.86-40.76-90.86-90.86v-5.32H207.1v5.32Zm0-9.82H108.05V111.52h-4.5v78.12H4.5V4.5H103.55V82.62h4.5V4.5h99.05V189.64Z"/><path d="M91.22,94.84v-18.24c0-18.97-15.43-34.4-34.4-34.4h-5.48c-18.97,0-34.4,15.43-34.4,34.4v66.74c0,18.97,15.43,34.4,34.4,34.4h5.48c18.97,0,34.4-15.43,34.4-34.4v-44h29.22v18.27c0,18.97,15.43,34.4,34.4,34.4h5.48c18.97,0,34.4-15.43,34.4-34.4V50.87c0-18.97-15.43-34.4-34.4-34.4h-5.48c-18.97,0-34.4,15.43-34.4,34.4v43.97h-29.22Zm-4.5,48.5c0,16.49-13.41,29.9-29.9,29.9h-5.48c-16.49,0-29.9-13.41-29.9-29.9V76.6c0-16.49,13.41-29.9,29.9-29.9h5.48c16.49,0,29.9,13.41,29.9,29.9v66.74ZM124.93,50.87c0-16.49,13.41-29.9,29.9-29.9h5.48c16.49,0,29.9,13.41,29.9,29.9V117.61c0,16.49-13.41,29.9-29.9,29.9h-5.48c-16.49,0-29.9-13.41-29.9-29.9V50.87Z"/></g></g></g></svg>