<?xml version="1.0" encoding="UTF-8"?><svg id="Ebene_2" xmlns="http://www.w3.org/2000/svg" viewBox="0 0 645.39 294.83"><g id="Layer_1"><g><path d="M0,52.67C0,33.97,12.54,16.48,30.02,16.48h5.86c17.59,0,30.33,17.49,30.33,36.19s-12.84,36.19-30.53,36.19h-5.56C12.43,88.86,0,71.37,0,52.67Zm30.12,28.61h5.56c12.23,0,21.63-13.75,21.63-28.61s-9.2-28.61-21.43-28.61h-5.76c-12.23,0-21.23,13.65-21.23,28.61s9,28.61,21.23,28.61ZM20.82,0h7.68V8.59h-7.68V0Zm17.08,0h7.58V8.59h-7.58V0Z"/><path d="M71.25,73.39h8.09c.61,5.16,4.95,8.29,9.7,8.29h4.04c4.55,0,9-2.12,9-7.78,0-4.35-2.43-6.67-7.58-7.58l-9.3-1.72c-8.49-1.62-12.74-6.37-12.74-13.65,0-8.79,7.78-14.56,15.97-14.56h4.35c8.19,0,16.07,5.86,16.27,14.56h-7.98c-.3-4.14-4.04-7.38-8.39-7.38h-4.14c-4.25,0-7.78,2.33-7.78,6.87,0,3.44,2.02,6.07,6.67,6.98l9.71,1.92c7.78,1.52,13.24,4.45,13.24,14.05s-8.29,15.47-16.98,15.47h-4.35c-9.2,0-17.39-6.07-17.79-15.47Z"/><path d="M131.55,19.92v17.18h16.17v6.98h-16.17v30.73c0,4.45,2.02,6.27,5.76,6.27h9.6v6.97h-11.22c-8.09,0-12.23-3.84-12.23-12.64v-31.34h-11.12v-6.98h11.12v-12.54l8.09-4.65Z"/><path d="M169.83,36.29h4.25c11.52,0,20.02,11.12,20.02,23.76,0,1.92-.1,2.93-.2,3.94h-37c.61,10.82,6.37,17.69,13.14,17.69h3.94c6.37,0,10.72-4.65,11.73-10.01h7.78c-1.01,9.3-8.9,17.18-19.41,17.18h-4.15c-11.93,0-21.43-11.22-21.43-26.59s10.92-25.98,21.33-25.98Zm15.97,20.72c-.2-7.18-5.26-13.55-11.73-13.55h-3.94c-5.76,0-11.12,5.05-12.74,13.55h28.41Z"/><path d="M209.84,58.94v29.11h-8.09V37.1h8.09v8.19c1.62-4.85,5.36-8.19,10.31-8.19h7.08v6.98h-7.78c-6.17,0-9.6,8.9-9.6,14.86Z"/><path d="M240.47,58.94v29.11h-8.09V37.1h8.09v8.19c1.62-4.85,5.36-8.19,10.31-8.19h7.08v6.98h-7.78c-6.17,0-9.6,8.9-9.6,14.86Z"/><path d="M280.23,36.29h4.25c11.52,0,20.02,11.12,20.02,23.76,0,1.92-.1,2.93-.2,3.94h-37c.61,10.82,6.37,17.69,13.14,17.69h3.94c6.37,0,10.72-4.65,11.73-10.01h7.78c-1.01,9.3-8.9,17.18-19.41,17.18h-4.15c-11.93,0-21.43-11.22-21.43-26.59s10.92-25.98,21.33-25.98Zm15.97,20.72c-.2-7.18-5.26-13.55-11.73-13.55h-3.94c-5.76,0-11.12,5.05-12.74,13.55h28.41Z"/><path d="M311.52,17.89h9.2v10.31h-9.2v-10.31Zm.61,19.21h8.09v50.95h-8.09V37.1Z"/><path d="M327.46,62.57c0-13.55,7.99-26.28,22.04-26.28h3.54c10.71,0,18.7,8.29,19.41,19.81h-8.09c-.71-6.97-4.95-12.64-11.32-12.64h-3.64c-8.9,0-13.55,9-13.55,19.11s4.55,19.11,13.44,19.11h3.74c6.27,0,10.01-5.56,11.32-11.93h8.09c-1.31,10.11-8.29,19.11-19.51,19.11h-3.54c-14.15,0-21.94-12.74-21.94-26.28Z"/><path d="M379.75,16.17h8.09v29.52c2.43-5.16,7.99-9.4,13.95-9.4h4.95c8.79,0,15.77,8.19,15.77,19.31v32.45h-8.09v-31.64c0-7.38-3.94-12.84-9.81-12.84h-4.04c-7.68,0-12.74,8.39-12.74,17.08v27.39h-8.09V16.17Z"/><path d="M431.73,17.89h9.2v10.31h-9.2v-10.31Zm.61,19.21h8.09v50.95h-8.09V37.1Z"/><path d="M447.52,73.39h8.09c.61,5.16,4.95,8.29,9.7,8.29h4.04c4.55,0,9-2.12,9-7.78,0-4.35-2.43-6.67-7.58-7.58l-9.3-1.72c-8.49-1.62-12.74-6.37-12.74-13.65,0-8.79,7.78-14.56,15.97-14.56h4.35c8.19,0,16.07,5.86,16.28,14.56h-7.99c-.3-4.14-4.04-7.38-8.39-7.38h-4.14c-4.25,0-7.78,2.33-7.78,6.87,0,3.44,2.02,6.07,6.67,6.98l9.71,1.92c7.78,1.52,13.24,4.45,13.24,14.05s-8.29,15.47-16.98,15.47h-4.35c-9.2,0-17.39-6.07-17.79-15.47Z"/><path d="M490.88,62.57c0-13.55,7.99-26.28,22.04-26.28h3.54c10.71,0,18.7,8.29,19.41,19.81h-8.09c-.71-6.97-4.95-12.64-11.32-12.64h-3.64c-8.9,0-13.55,9-13.55,19.11s4.55,19.11,13.44,19.11h3.74c6.27,0,10.01-5.56,11.32-11.93h8.09c-1.31,10.11-8.29,19.11-19.51,19.11h-3.54c-14.15,0-21.94-12.74-21.94-26.28Z"/><path d="M543.17,16.17h8.09v29.52c2.43-5.16,7.99-9.4,13.95-9.4h4.95c8.79,0,15.77,8.19,15.77,19.31v32.45h-8.09v-31.64c0-7.38-3.94-12.84-9.81-12.84h-4.04c-7.68,0-12.74,8.39-12.74,17.08v27.39h-8.09V16.17Z"/><path d="M614.25,36.29h4.25c11.52,0,20.02,11.12,20.02,23.76,0,1.92-.1,2.93-.2,3.94h-37c.61,10.82,6.37,17.69,13.14,17.69h3.94c6.37,0,10.72-4.65,11.73-10.01h7.78c-1.01,9.3-8.9,17.18-19.41,17.18h-4.15c-11.93,0-21.43-11.22-21.43-26.59s10.92-25.98,21.33-25.98Zm15.97,20.72c-.2-7.18-5.26-13.55-11.73-13.55h-3.94c-5.76,0-11.12,5.05-12.74,13.55h28.41Z"/><path d="M.2,145.75c0-23.76,15.77-36.19,29.62-36.19h5.56c13.75,0,23.86,11.32,25.37,24.87h-8.59c-1.11-8.69-7.08-17.29-16.78-17.29h-5.56c-11.02,0-20.72,11.12-20.72,28.61s8.9,28.61,20.32,28.61h5.56c10.01,0,17.19-10.11,17.19-20.32v-1.82h-19.71v-6.97h28.2v35.89h-7.89v-11.93c-2.43,5.56-9.1,12.74-18.09,12.74h-5.56C14.96,181.94,.2,169.4,.2,145.75Z"/><path d="M89.88,129.37h4.25c11.52,0,20.02,11.12,20.02,23.76,0,1.92-.1,2.93-.2,3.94h-37c.61,10.82,6.37,17.69,13.14,17.69h3.94c6.37,0,10.72-4.65,11.73-10.01h7.78c-1.01,9.3-8.9,17.19-19.41,17.19h-4.15c-11.93,0-21.43-11.22-21.43-26.59s10.92-25.98,21.33-25.98Zm15.97,20.72c-.2-7.18-5.26-13.55-11.73-13.55h-3.94c-5.76,0-11.12,5.05-12.74,13.55h28.41Z"/><path d="M118.43,166.47h8.09c.61,5.16,4.95,8.29,9.7,8.29h4.04c4.55,0,9-2.12,9-7.78,0-4.35-2.43-6.67-7.58-7.58l-9.3-1.72c-8.49-1.62-12.74-6.37-12.74-13.65,0-8.79,7.78-14.56,15.97-14.56h4.35c8.19,0,16.07,5.86,16.28,14.56h-7.99c-.3-4.15-4.04-7.38-8.39-7.38h-4.14c-4.25,0-7.78,2.33-7.78,6.87,0,3.44,2.02,6.07,6.67,6.98l9.71,1.92c7.78,1.52,13.24,4.45,13.24,14.05s-8.29,15.47-16.98,15.47h-4.35c-9.2,0-17.39-6.07-17.79-15.47Z"/><path d="M183.13,129.37h4.25c11.52,0,20.02,11.12,20.02,23.76,0,1.92-.1,2.93-.2,3.94h-37c.61,10.82,6.37,17.69,13.14,17.69h3.94c6.37,0,10.72-4.65,11.73-10.01h7.78c-1.01,9.3-8.9,17.19-19.41,17.19h-4.15c-11.93,0-21.43-11.22-21.43-26.59s10.92-25.98,21.33-25.98Zm15.97,20.72c-.2-7.18-5.26-13.55-11.73-13.55h-3.94c-5.76,0-11.12,5.05-12.74,13.55h28.41Z"/><path d="M215.15,109.25h8.09v71.88h-8.09V109.25Z"/><path d="M233.39,109.25h8.09v71.88h-8.09V109.25Z"/><path d="M248.57,166.47h8.09c.61,5.16,4.95,8.29,9.7,8.29h4.04c4.55,0,9-2.12,9-7.78,0-4.35-2.43-6.67-7.58-7.58l-9.3-1.72c-8.49-1.62-12.74-6.37-12.74-13.65,0-8.79,7.78-14.56,15.97-14.56h4.35c8.19,0,16.07,5.86,16.28,14.56h-7.99c-.3-4.15-4.04-7.38-8.39-7.38h-4.14c-4.25,0-7.78,2.33-7.78,6.87,0,3.44,2.02,6.07,6.67,6.98l9.71,1.92c7.78,1.52,13.24,4.45,13.24,14.05s-8.29,15.47-16.98,15.47h-4.35c-9.2,0-17.39-6.07-17.79-15.47Z"/><path d="M291.94,155.66c0-13.55,7.99-26.28,22.04-26.28h3.54c10.71,0,18.7,8.29,19.41,19.81h-8.09c-.71-6.98-4.95-12.64-11.32-12.64h-3.64c-8.9,0-13.55,9-13.55,19.11s4.55,19.11,13.44,19.11h3.74c6.27,0,10.01-5.56,11.32-11.93h8.09c-1.31,10.11-8.29,19.11-19.51,19.11h-3.54c-14.15,0-21.94-12.74-21.94-26.28Z"/><path d="M344.23,109.25h8.09v29.52c2.43-5.16,7.99-9.4,13.95-9.4h4.95c8.79,0,15.77,8.19,15.77,19.31v32.45h-8.09v-31.64c0-7.38-3.94-12.84-9.81-12.84h-4.04c-7.68,0-12.74,8.39-12.74,17.08v27.4h-8.09V109.25Z"/><path d="M394.2,167.79c0-10.01,7.68-14.46,18.4-16.28l14.56-2.43v-.61c0-7.08-3.94-11.93-9.3-11.93h-4.25c-5.66,0-10.01,3.54-10.62,10.01h-8.19c.81-10.61,9.2-17.18,18.8-17.18h4.25c10.61,0,17.39,7.88,17.39,19.31v21.23c0,3.94,1.42,4.25,5.96,4.25v6.98h-5.66c-4.65,0-8.19-2.02-7.99-8.49-2.73,5.56-9.4,9.3-16.98,9.3-10.01,0-16.38-5.46-16.38-14.15Zm17.08,6.97c9,0,15.87-5.96,15.87-15.77v-3.24l-12.84,2.33c-7.18,1.31-11.73,3.03-11.73,9.3,0,4.55,3.64,7.38,8.69,7.38Z"/><path d="M450.39,137.16h-11.12v-6.97h11.12v-7.78c0-8.39,3.74-13.14,12.23-13.14h11.22v6.98h-9.2c-4.14,0-6.17,1.72-6.17,6.87v7.08h16.38v6.97h-16.38v43.97h-8.09v-43.97Z"/><path d="M487.79,113v17.19h16.17v6.97h-16.17v30.73c0,4.45,2.02,6.27,5.76,6.27h9.6v6.98h-11.22c-8.09,0-12.23-3.84-12.23-12.64v-31.34h-11.12v-6.97h11.12v-12.54l8.09-4.65Z"/><path d="M538.03,137.16h-11.12v-6.97h11.12v-7.78c0-8.39,3.74-13.14,12.23-13.14h11.22v6.98h-9.2c-4.14,0-6.17,1.72-6.17,6.87v7.08h16.38v6.97h-16.38v43.97h-8.09v-43.97Z"/><path d="M609.6,181.13h-8.09v-8.59c-2.43,5.16-7.99,9.4-13.95,9.4h-4.95c-8.79,0-15.77-8.19-15.77-19.31v-32.45h8.09v31.64c0,7.38,3.94,12.84,9.81,12.84h4.04c7.68,0,12.74-8.39,12.74-17.08v-27.4h8.09v50.95Zm-33.66-68.24h7.68v8.59h-7.68v-8.59Zm17.08,0h7.58v8.59h-7.58v-8.59Z"/><path d="M628.01,152.02v29.11h-8.09v-50.95h8.09v8.19c1.62-4.85,5.36-8.19,10.31-8.19h7.08v6.97h-7.78c-6.17,0-9.6,8.9-9.6,14.86Z"/><path d="M3.74,203.45H13.55l30.43,50.54c2.33,3.84,3.74,6.77,3.74,6.77l.3-.1s-.2-3.24-.2-7.78v-49.43h8.59v70.76h-9.71l-30.43-50.34c-2.43-3.94-3.74-6.77-3.74-6.77h-.3s.2,3.23,.2,7.78v49.33H3.74v-70.76Z"/><path d="M86.69,222.45h4.25c11.52,0,20.02,11.12,20.02,23.76,0,1.92-.1,2.93-.2,3.94h-37c.61,10.82,6.37,17.69,13.14,17.69h3.94c6.37,0,10.72-4.65,11.73-10.01h7.78c-1.01,9.3-8.9,17.19-19.41,17.19h-4.15c-11.93,0-21.43-11.22-21.43-26.59s10.92-25.98,21.33-25.98Zm15.97,20.72c-.2-7.18-5.26-13.55-11.73-13.55h-3.94c-5.76,0-11.12,5.05-12.74,13.55h28.41Z"/><path d="M165.22,248.74c0,14.96-9,26.28-21.63,26.28h-3.24c-5.16,0-10.82-3.64-13.65-8.09v27.9h-8.09v-71.57h8.09v7.28c2.73-4.45,8.49-8.09,13.85-8.09h3.13c12.43,0,21.53,11.62,21.53,26.28Zm-25.78,19.11h3.94c6.77,0,13.44-7.58,13.44-19.11s-6.67-19.11-13.44-19.11h-3.94c-7.38,0-13.45,7.68-13.45,19.11s6.07,19.11,13.45,19.11Z"/><path d="M172.65,202.34h8.09v29.52c2.43-5.16,7.99-9.4,13.95-9.4h4.95c8.79,0,15.77,8.19,15.77,19.31v32.45h-8.09v-31.64c0-7.38-3.94-12.84-9.81-12.84h-4.04c-7.68,0-12.74,8.39-12.74,17.08v27.4h-8.09v-71.88Z"/><path d="M233.46,245.1v29.11h-8.09v-50.95h8.09v8.19c1.62-4.85,5.36-8.19,10.31-8.19h7.08v6.98h-7.78c-6.17,0-9.6,8.9-9.6,14.86Z"/><path d="M252,248.74c0-14.96,9.3-26.28,21.83-26.28h3.54c12.54,0,21.84,11.12,21.84,26.28s-9.3,26.28-21.73,26.28h-3.64c-12.53,0-21.83-11.32-21.83-26.28Zm21.73,19.11h3.84c7.28,0,13.34-7.89,13.34-19.11s-6.07-19.11-13.34-19.11h-3.84c-7.38,0-13.34,7.78-13.34,19.11s5.96,19.11,13.34,19.11Z"/><path d="M306.76,202.34h8.09v71.88h-8.09v-71.88Z"/><path d="M322.25,248.74c0-14.96,9.3-26.28,21.83-26.28h3.54c12.54,0,21.84,11.12,21.84,26.28s-9.3,26.28-21.73,26.28h-3.64c-12.53,0-21.83-11.32-21.83-26.28Zm21.73,19.11h3.84c7.28,0,13.34-7.89,13.34-19.11s-6.07-19.11-13.34-19.11h-3.84c-7.38,0-13.34,7.78-13.34,19.11s5.96,19.11,13.34,19.11Z"/><path d="M371.95,280.48c0-5.26,2.02-9,6.47-11.83-3.13-1.62-4.65-4.45-4.65-7.48,0-3.74,3.44-7.78,8.39-8.49-3.64-3.23-6.07-7.48-6.07-12.84,0-10.41,8.29-17.39,17.29-17.39h3.54c4.45,0,6.98,.81,12.23,.81h10.31v6.07h-9.3c2.73,3.03,4.14,6.57,4.14,10.82,0,9.3-7.38,17.29-17.39,17.29h-10.61c-3.03,0-4.85,1.62-4.85,3.84,0,2.02,1.92,3.74,5.16,3.74h16.48c10.21,0,16.78,5.86,16.78,14.46,0,9.4-7.58,15.37-18.4,15.37h-11.02c-12.13,0-18.5-6.07-18.5-14.35Zm18.5,7.68h11.42c5.86,0,9.81-3.23,9.81-8.59,0-4.75-3.64-7.88-9.5-7.88h-12.33c-8.09,0-9.6,4.85-9.6,8.29,0,4.65,3.44,8.19,10.21,8.19Zm2.93-37.3h3.34c5.86,0,9.5-5.46,9.5-11.02s-3.64-10.72-9.5-10.72h-3.23c-4.04,0-9.4,4.04-9.4,10.72s5.36,11.02,9.3,11.02Z"/><path d="M424.46,204.05h9.2v10.31h-9.2v-10.31Zm.61,19.21h8.09v50.95h-8.09v-50.95Z"/><path d="M461.72,222.45h4.25c11.52,0,20.02,11.12,20.02,23.76,0,1.92-.1,2.93-.2,3.94h-37c.61,10.82,6.37,17.69,13.14,17.69h3.94c6.37,0,10.72-4.65,11.73-10.01h7.78c-1.01,9.3-8.9,17.19-19.41,17.19h-4.15c-11.93,0-21.43-11.22-21.43-26.59s10.92-25.98,21.33-25.98Zm15.97,20.72c-.2-7.18-5.26-13.55-11.73-13.55h-3.94c-5.76,0-11.12,5.05-12.74,13.55h28.41Z"/></g></g></svg>