<?xml version="1.0" encoding="UTF-8"?> <svg xmlns="http://www.w3.org/2000/svg" id="Layer_1" data-name="Layer 1" viewBox="0 0 495.35 109.29"><defs><style> .cls-1 { fill: #00ae4d; } .cls-1, .cls-2 { stroke-width: 0px; } .cls-2 { fill: #004278; } </style></defs><g><path class="cls-2" d="m40.52,106.15l2.51-3c1.73,1.43,3.55,2.34,5.75,2.34,1.73,0,2.78-.69,2.78-1.82v-.05c0-1.07-.66-1.63-3.88-2.45-3.88-.99-6.39-2.06-6.39-5.89v-.05c0-3.5,2.81-5.81,6.74-5.81,2.81,0,5.2.88,7.16,2.45l-2.2,3.19c-1.71-1.18-3.39-1.9-5.01-1.9s-2.48.74-2.48,1.68v.05c0,1.27.83,1.68,4.16,2.53,3.91,1.02,6.11,2.42,6.11,5.78v.05c0,3.83-2.92,5.97-7.07,5.97-2.92,0-5.86-1.02-8.18-3.08Z"></path><path class="cls-2" d="m59.22,88.87h4.18v20.09h-4.18v-20.09Z"></path><path class="cls-2" d="m66.63,101.66v-.05c0-4.24,3.41-7.68,8.01-7.68s7.95,3.38,7.95,7.62v.05c0,4.24-3.41,7.68-8.01,7.68s-7.95-3.39-7.95-7.62Zm11.83,0v-.05c0-2.18-1.57-4.07-3.88-4.07s-3.83,1.84-3.83,4.02v.05c0,2.17,1.57,4.07,3.88,4.07s3.83-1.85,3.83-4.02Z"></path><path class="cls-2" d="m83.49,94.21h4.43l3.3,9.88,3.33-9.88h4.35l-5.81,14.86h-3.8l-5.81-14.86Z"></path><path class="cls-2" d="m99.79,101.66v-.05c0-4.21,3-7.68,7.29-7.68,4.93,0,7.18,3.83,7.18,8.01,0,.33-.03.71-.05,1.1h-10.27c.41,1.9,1.73,2.89,3.61,2.89,1.4,0,2.42-.44,3.58-1.51l2.39,2.12c-1.38,1.7-3.36,2.75-6.03,2.75-4.43,0-7.71-3.11-7.71-7.62Zm10.4-1.24c-.25-1.87-1.35-3.14-3.11-3.14s-2.86,1.24-3.19,3.14h6.3Z"></path><path class="cls-2" d="m117.39,94.21h4.19v2.09c.96-1.24,2.2-2.37,4.32-2.37,3.17,0,5.01,2.09,5.01,5.48v9.55h-4.18v-8.23c0-1.98-.94-3-2.53-3s-2.62,1.02-2.62,3v8.23h-4.19v-14.75Z"></path><path class="cls-2" d="m133.39,107l1.79-2.75c1.6,1.16,3.28,1.76,4.65,1.76,1.21,0,1.76-.44,1.76-1.1v-.05c0-.91-1.43-1.21-3.05-1.71-2.06-.61-4.4-1.57-4.4-4.43v-.05c0-3,2.42-4.68,5.39-4.68,1.87,0,3.91.63,5.51,1.71l-1.6,2.89c-1.46-.85-2.92-1.37-3.99-1.37-1.02,0-1.54.44-1.54,1.02v.05c0,.83,1.4,1.21,3,1.76,2.06.69,4.46,1.68,4.46,4.38v.05c0,3.28-2.45,4.76-5.64,4.76-2.06,0-4.38-.69-6.33-2.23Z"></path><path class="cls-2" d="m148.37,88.87h4.19v10.71l4.9-5.37h5.01l-5.61,5.81,5.81,8.95h-4.79l-3.85-6.03-1.46,1.54v4.49h-4.19v-20.09Z"></path><path class="cls-2" d="m163.28,101.66v-.05c0-4.24,3.41-7.68,8.01-7.68s7.95,3.38,7.95,7.62v.05c0,4.24-3.41,7.68-8.01,7.68s-7.95-3.39-7.95-7.62Zm11.83,0v-.05c0-2.18-1.57-4.07-3.88-4.07s-3.83,1.84-3.83,4.02v.05c0,2.17,1.57,4.07,3.88,4.07s3.83-1.85,3.83-4.02Z"></path></g><g><path class="cls-1" d="m50.17,20.41v-7.82c0-7.46-4.65-12.59-12.11-12.59s-12.11,5.12-12.11,12.59v13.36h-13.35c-7.46,0-12.59,4.65-12.59,12.11s5.12,12.11,12.59,12.11h13.36v13.35c0,7.46,4.65,12.59,12.11,12.59,6.07,0,10.27-3.38,11.64-8.66h-11.64c-2.17,0-3.93-1.76-3.93-3.93v-21.54H12.59c-2.17,0-3.93-1.76-3.93-3.93s1.76-3.93,3.93-3.93h21.54v-8.19h0v-13.36c0-2.17,1.76-3.93,3.93-3.93s3.93,1.76,3.93,3.93v7.82h8.19Z"></path><path class="cls-2" d="m63.55,25.97h-21.56v8.2h21.56c2.17,0,3.93,1.76,3.93,3.93s-1.76,3.93-3.93,3.93h-21.56v19.87h8.19v-11.68h13.37c7.47,0,12.6-4.66,12.6-12.13s-5.13-12.13-12.6-12.13Z"></path><g><path class="cls-2" d="m95.62,34.62c-10.35,0-17.57,5.67-17.57,13.78s7.35,13.63,17.87,13.63c5.55,0,9.99-1.29,13.6-3.96l.25-.18-3.27-5.26-.3.23c-2.43,1.85-5.81,2.84-9.79,2.84-5.28,0-8.8-2.13-9.5-5.73h23.68l.04-.29c.52-3.84-.43-7.28-2.76-9.95-2.75-3.15-7.45-5.11-12.25-5.11Zm0,6.04c3.75,0,6.54,1.65,7.26,4.25h-15.46c1.29-2.75,4.18-4.25,8.2-4.25Z"></path><path class="cls-2" d="m134.27,34.62c-3.73,0-7.35.9-10.79,2.68v-1.89h-8.26v25.74h8.26v-17.23c2.76-1.63,5.35-2.37,8.38-2.37,4.47,0,6.56,1.64,6.56,5.18v14.42h8.26v-15.95c0-6.72-4.52-10.58-12.4-10.58Z"></path><path class="cls-2" d="m173.61,54.11c-1.25.65-3.44,1.34-5.8,1.34-3.82,0-5.52-1.49-5.52-4.83v-8.97h12.02v-6.24h-12.02v-6.95l-8.21,2.31v4.65h-4.19v6.24h4.19v9.66c0,7.15,4.23,10.63,12.94,10.63,3.09,0,5.88-.54,8.55-1.65l.28-.12-1.88-6.25-.36.19Z"></path><path class="cls-2" d="m193.75,34.62c-5.06,0-9.69,1.11-14.14,3.39l-.28.14,2.4,5.57.33-.2c2.88-1.76,6.85-2.81,10.61-2.81,2.48,0,8.23.47,8.28,4.78-3.27-.91-6.31-1.32-9.81-1.32-8.57,0-13.49,3.37-13.49,9.25,0,6.31,5.97,8.56,11.56,8.56,4.75,0,8.61-.94,11.78-2.87v2.04h8.21v-15.11c0-7.36-5.49-11.42-15.46-11.42Zm-7.39,18.21c0-2.92,4.54-3.36,7.25-3.36,2.52,0,4.67.28,7.34.96v3.05c-2.48,1.64-5.52,2.5-8.82,2.5-2.15,0-5.77-.41-5.77-3.16Z"></path><polygon class="cls-2" points="248.75 38.9 223.67 38.9 223.67 25.9 215.17 25.9 215.17 61.15 223.67 61.15 223.67 46.33 248.75 46.33 248.75 61.15 257.26 61.15 257.26 25.9 248.75 25.9 248.75 38.9"></polygon><path class="cls-2" d="m279.81,34.62c-10.3,0-17.77,5.77-17.77,13.73s7.64,13.68,17.77,13.68,17.82-5.75,17.82-13.68-7.49-13.73-17.82-13.73Zm0,20.73c-5.65,0-9.17-2.66-9.17-6.95s3.58-7.1,9.12-7.1,9.22,2.72,9.22,7.1-3.6,6.95-9.17,6.95Z"></path><path class="cls-2" d="m317.54,45.26c-5.36-.18-7.75-.85-7.75-2.17,0-1.47,2.31-2.27,6.51-2.27,3.97,0,8.32.95,11.07,2.42l.28.15,3.52-5.5-.33-.17c-3.96-2.05-8.8-3.09-14.39-3.09-9.08,0-14.72,3.28-14.72,8.56,0,6.3,7.31,7.41,13.67,7.68,5.76.26,7.8.89,7.8,2.42s-2.75,2.47-7.34,2.47c-4.26,0-9.27-1.42-11.91-3.38l-.32-.23-3.24,6.1.27.16c3.67,2.21,9.74,3.64,15.44,3.64,9.63,0,15.85-3.51,15.85-8.95,0-4.88-4.85-7.52-14.41-7.82Z"></path><path class="cls-2" d="m354.25,34.62c-3.73,0-7.17.89-9.76,2.52v-1.73h-8.26v35.25h8.26v-11.2c2.6,1.52,6.09,2.39,9.71,2.39,9.3,0,15.8-5.57,15.8-13.54s-6.62-13.68-15.75-13.68Zm-9.76,9.32c2.26-1.65,5.16-2.59,7.98-2.59,5.59,0,8.92,2.62,8.92,7s-3.4,6.9-8.87,6.9c-2.89,0-5.81-.92-8.03-2.54v-8.77Z"></path><rect class="cls-2" x="374.64" y="25.9" width="8.31" height="6.19"></rect><rect class="cls-2" x="374.69" y="35.41" width="8.21" height="25.74"></rect><path class="cls-2" d="m410.03,54.11c-1.25.65-3.44,1.34-5.8,1.34-3.82,0-5.52-1.49-5.52-4.83v-8.97h12.02v-6.24h-12.02v-6.95l-8.21,2.31v4.65h-4.19v6.24h4.19v9.66c0,7.15,4.23,10.63,12.94,10.63,3.09,0,5.88-.54,8.55-1.65l.28-.12-1.88-6.25-.36.19Z"></path><path class="cls-2" d="m430.17,34.62c-5.06,0-9.69,1.11-14.14,3.39l-.28.14,2.4,5.57.33-.2c2.88-1.76,6.85-2.81,10.61-2.81,2.48,0,8.23.47,8.28,4.78-3.27-.91-6.31-1.32-9.81-1.32-8.57,0-13.48,3.37-13.48,9.25,0,6.31,5.97,8.56,11.57,8.56,4.75,0,8.61-.94,11.78-2.87v2.04h8.21v-15.11c0-7.36-5.49-11.42-15.46-11.42Zm-7.39,18.21c0-2.92,4.54-3.36,7.25-3.36,2.52,0,4.67.28,7.34.96v3.05c-2.47,1.64-5.52,2.5-8.82,2.5-2.15,0-5.77-.41-5.77-3.16Z"></path><polygon class="cls-2" points="451.4 61.15 459.66 61.15 459.66 24.25 451.4 25.97 451.4 61.15"></polygon><path class="cls-2" d="m480.94,45.26c-5.36-.18-7.75-.85-7.75-2.17,0-1.47,2.31-2.27,6.51-2.27,3.97,0,8.32.95,11.07,2.42l.28.15,3.52-5.5-.33-.17c-3.96-2.05-8.8-3.09-14.39-3.09-9.08,0-14.72,3.28-14.72,8.56,0,6.3,7.3,7.41,13.67,7.68,5.76.26,7.8.89,7.8,2.42s-2.75,2.47-7.34,2.47c-4.26,0-9.27-1.42-11.91-3.38l-.32-.23-3.24,6.1.27.16c3.68,2.21,9.74,3.64,15.44,3.64,9.63,0,15.85-3.51,15.85-8.95,0-4.88-4.85-7.52-14.41-7.82Z"></path></g></g></svg> 