<svg xmlns="http://www.w3.org/2000/svg" width="161" height="34" viewBox="0 0 161 34" fill="none"><path fill="url(#a)" fill-rule="evenodd" d="M16.509 29.007c1.251 2.267 4.464 2.39 5.884.225L35.638 9.047c1.404-2.14.06-5.01-2.483-5.302L7.123.759C4.347.441 2.37 3.391 3.72 5.837l12.788 23.17Z" clip-rule="evenodd"/><path fill="url(#b)" fill-rule="evenodd" d="M16.509 29.007c1.251 2.267 4.464 2.39 5.884.225L35.638 9.047c1.404-2.14.06-5.01-2.483-5.302L7.123.759C4.347.441 2.37 3.391 3.72 5.837l12.788 23.17Z" clip-rule="evenodd"/><path fill="url(#c)" d="m18.43 25.126-1.175 1.767a1.146 1.146 0 0 1-1.958-.081l1.212 2.195c.216.392.49.72.804.982 1.503 1.259 3.905 1.034 5.08-.757L35.638 9.047c1.404-2.14.06-5.01-2.483-5.302L7.123.759C4.347.441 2.37 3.391 3.72 5.837l.103.186 22.158 2.564a1.91 1.91 0 0 1 1.377 2.946L18.43 25.126Z"/><path fill="#6D4AFF" d="M139.64 6.972h-7.636v16.543h3.025v-4.118a1.509 1.509 0 0 1 1.511-1.51h3.1a5.447 5.447 0 0 0 5.445-5.446 5.433 5.433 0 0 0-1.586-3.866 5.446 5.446 0 0 0-3.859-1.603Zm2.383 5.428a2.578 2.578 0 0 1-2.583 2.58h-4.424V9.824h4.424a2.579 2.579 0 0 1 2.579 2.593l.004-.017ZM121.377 23.454l-6.095-16.53h3.444l4.009 11.83c.157.423.271.861.34 1.307h.034c.05-.45.165-.89.341-1.307l4.022-11.83h3.464l-6.125 16.53h-3.434ZM146.214 23.454V6.924h2.651l7.807 10.254c.28.354.524.734.728 1.137h.047c-.052-.499-.077-1-.074-1.5v-9.89h3.127v16.529h-2.651L150.022 13.2a7.316 7.316 0 0 1-.725-1.137h-.027c.042.5.059 1 .051 1.5v9.89h-3.107Z"/><path fill="#1B1340" d="M55.027 6.876h-7.636V23.42h3.025v-4.118a1.511 1.511 0 0 1 1.51-1.511h3.101a5.445 5.445 0 0 0 5.445-5.446 5.447 5.447 0 0 0-5.445-5.469Zm2.382 5.429a2.579 2.579 0 0 1-2.583 2.58h-4.424V9.727h4.424a2.58 2.58 0 0 1 2.58 2.594l.003-.017ZM60.948 23.427v-6.565c0-2.679 1.566-4.81 4.693-4.81a6.006 6.006 0 0 1 1.494.164v2.702c-.357-.023-.68-.023-.806-.023-1.658 0-2.383.758-2.383 2.297v6.235h-2.998ZM68.033 17.856c0-3.291 2.488-5.803 5.949-5.803 3.46 0 5.945 2.512 5.945 5.803 0 3.29-2.488 5.83-5.945 5.83-3.458 0-5.949-2.536-5.949-5.83Zm8.933 0c0-1.872-1.255-3.2-2.984-3.2s-2.988 1.328-2.988 3.2c0 1.871 1.256 3.199 2.988 3.199s2.984-1.304 2.984-3.2ZM88.646 14.68h-3.243v4.149c0 1.446.52 2.106 2.011 2.106.143 0 .5 0 .95-.023v2.443c-.57.164-1.16.251-1.753.259-2.512 0-4.22-1.515-4.22-4.384v-4.55H80.38v-2.382h.5a1.511 1.511 0 0 0 1.511-1.511V8.52h3.012v3.768h3.243v2.392ZM89.548 17.856c0-3.291 2.487-5.803 5.945-5.803s5.949 2.512 5.949 5.803c0 3.29-2.488 5.83-5.949 5.83-3.46 0-5.945-2.536-5.945-5.83Zm8.933 0c0-1.872-1.256-3.2-2.988-3.2s-2.984 1.328-2.984 3.2c0 1.871 1.255 3.199 2.984 3.199s2.988-1.304 2.988-3.2ZM103.004 23.427v-6.34c0-2.941 1.872-5.048 5.213-5.048 3.342 0 5.19 2.12 5.19 5.047v6.327h-2.984v-6.078c0-1.634-.735-2.655-2.206-2.655-1.47 0-2.201 1.021-2.201 2.655v6.092h-3.012Z"/><defs><linearGradient id="a" x1="21.373" x2="22.494" y1="-17.476" y2="20.609" gradientUnits="userSpaceOnUse"><stop offset=".989" stop-color="#6D4AFF"/></linearGradient><linearGradient id="b" x1="21.592" x2="12.283" y1="-12.203" y2="27.874" gradientUnits="userSpaceOnUse"><stop offset=".48" stop-color="#24ECC6" stop-opacity="0"/><stop offset=".994" stop-color="#24ECC6"/></linearGradient><linearGradient id="c" x1="24.671" x2="4.031" y1="32.265" y2="-3.028" gradientUnits="userSpaceOnUse"><stop offset=".066" stop-color="#ABFFEF"/><stop offset=".45" stop-color="#CAC9FF"/><stop offset="1" stop-color="#6D4AFF"/></linearGradient></defs></svg>