<svg width="47" height="60" viewBox="0 0 47 60" fill="none" xmlns="http://www.w3.org/2000/svg">
<g clip-path="url(#clip0_2730_7135)">
<path d="M26.0271 0.0932943C27.1871 0.266628 27.9338 0.933294 28.4271 1.67996C28.8405 2.91996 28.9338 4.15996 27.9338 5.15996L23.1205 9.9733L18.3871 5.15996C17.3071 4.15996 17.3871 2.91996 17.8938 1.67996C18.3871 0.933294 19.1338 0.266628 20.2138 0.0932943C21.4538 -0.0667057 22.4538 0.426628 23.1205 1.34663C23.8671 0.426628 24.8671 -0.0667057 26.0271 0.0932943V0.0932943Z" fill="#52BDBC"/>
<path d="M0.0390625 4.99977C4.10573 4.82644 8.0924 5.33311 10.3324 7.57311L23.1191 20.3464L35.8124 7.57311C38.2257 5.23977 42.3724 4.82644 46.1991 4.99977L23.1191 28.0664L0.0390625 4.99977Z" fill="#009793"/>
<path d="M8.26758 3.00008C11.0809 2.92008 13.8276 3.17341 15.4009 4.74674L23.1209 12.5467L30.8409 4.74674C32.4142 3.17341 35.3209 2.84008 37.8942 3.00008L23.1209 17.8667L8.26758 3.00008Z" fill="#1FAAA7"/>
<path fill-rule="evenodd" clip-rule="evenodd" d="M44.4924 39.08C44.4924 39.0267 44.4924 38.9733 44.3857 38.6533L43.9191 37.4533H41.9324L41.5191 38.6533C41.4657 38.8133 41.4124 38.9733 41.4124 39.08C41.4124 39.2267 41.4657 39.28 41.6791 39.3867H40.2657C40.6257 39.1867 40.7324 39.0267 40.9991 38.3467L42.3591 34.9467C42.4124 34.7867 42.4524 34.68 42.4524 34.5867C42.4524 34.4267 42.4124 34.3733 42.1991 34.2667H43.4524L45.0657 38.3467C45.3324 38.9733 45.4924 39.1867 45.8524 39.3867H44.2391C44.4391 39.28 44.4924 39.2267 44.4924 39.08V39.08ZM43.7191 36.9867L42.9324 34.9467L42.1457 36.9867H43.7191ZM42.9324 33.7467L42.4657 33.8533L42.9324 33.5333L44.1857 32.6533L44.6124 33.2267L42.9324 33.7467ZM38.4257 34.2667H39.7857C39.4791 34.48 39.4257 34.68 39.4257 35.2V39.6533C38.9591 39.5467 38.6391 39.28 38.3324 38.8133L35.6124 35.36V38.4933C35.6124 39.0267 35.6657 39.1733 35.9724 39.3867H34.6124C34.9324 39.1733 35.0391 39.0267 35.0391 38.4933V35.2C35.0391 34.68 34.9324 34.48 34.6124 34.2667H35.7724C35.7724 34.3733 35.7724 34.3733 35.9191 34.5733L38.8524 38.24V35.2C38.8524 34.68 38.7457 34.48 38.4257 34.2667V34.2667ZM32.3724 38.92C32.8924 38.92 33.4124 38.76 34.0924 38.4L33.6791 39.28C33.2524 39.4933 32.9457 39.5467 32.4791 39.5467C30.6924 39.5467 29.4924 38.44 29.4924 36.8267C29.4924 35.3067 30.6924 34.16 32.2657 34.16C32.6791 34.16 33.1457 34.2133 33.6791 34.3733V35.2533C33.1457 34.9467 32.7324 34.7867 32.2657 34.7867C31.1724 34.7867 30.3857 35.5733 30.3857 36.72C30.3857 37.92 31.2657 38.92 32.3724 38.92V38.92ZM27.5591 38.8133C28.2391 38.8133 28.6524 38.7067 29.0791 38.4L28.7057 39.3867H25.4657C25.7324 39.2267 25.7857 39.08 25.7857 38.4V35.2533C25.7857 34.5733 25.7324 34.4267 25.4657 34.2667H28.0257C28.1857 34.2667 28.2391 34.2667 28.3457 34.2133V35.16C28.0791 34.8933 27.8791 34.84 27.3991 34.84C26.9857 34.84 26.8257 34.84 26.5724 34.8933V36.36H27.6124C27.7191 36.36 27.7724 36.3067 27.8791 36.3067V37.0933C27.7724 36.9333 27.6124 36.88 27.2924 36.88H26.5724V38.76C26.9324 38.8133 27.1991 38.8133 27.5591 38.8133ZM24.6391 37.7733C24.6391 38.4 24.2657 38.92 23.6391 39.1733C23.4257 39.3333 23.1724 39.3867 22.7991 39.3867H20.6657C20.9724 39.2267 21.0257 39.08 21.0257 38.4V35.2533C21.0257 34.5733 20.9724 34.4267 20.6657 34.2667H22.7991C23.1191 34.2667 23.3324 34.32 23.5324 34.4267C23.9057 34.6267 24.1591 35 24.1591 35.4133C24.1591 35.7333 24.0124 36.04 23.6924 36.2533C23.6391 36.3067 23.5324 36.36 23.3724 36.4133C23.6391 36.5067 23.7991 36.56 23.9591 36.6133C24.3724 36.88 24.6391 37.2933 24.6391 37.7733V37.7733ZM21.8124 36.36H22.0657C22.3324 36.36 22.5991 36.3067 22.7991 36.2533C23.1191 36.0933 23.3324 35.8267 23.3324 35.52C23.3324 35.2 23.1191 34.9467 22.7991 34.84C22.6524 34.7867 22.4924 34.7333 22.3324 34.7333C22.1724 34.7333 22.0257 34.7867 21.8124 34.7867V36.36ZM23.7991 37.88C23.7991 37.56 23.6391 37.3067 23.4257 37.0933C23.2257 36.9867 23.0657 36.88 22.7991 36.8267H22.3857C22.1724 36.8267 22.0257 36.8267 21.8124 36.88V38.8133C22.0657 38.8667 22.2257 38.8667 22.4924 38.8667H22.7991C23.4257 38.76 23.7991 38.4533 23.7991 37.88ZM19.0924 34.8933C19.5591 35.3733 19.8791 36.0933 19.8791 36.8267C19.8791 38.3467 18.6257 39.5467 16.9991 39.5467C15.4391 39.5467 14.1857 38.3467 14.1857 36.88C14.1857 35.3733 15.3857 34.16 16.9991 34.16H17.1057C17.8391 34.16 18.6257 34.4267 19.0924 34.8933V34.8933ZM18.9857 36.9333C18.9857 36.36 18.8257 35.7867 18.4657 35.3733C18.1057 34.9467 17.6257 34.6933 16.9991 34.6933C16.4791 34.6933 15.9057 34.9467 15.5857 35.2667C15.2257 35.6267 15.0657 36.2 15.0657 36.7333C15.0657 37.36 15.2791 37.9333 15.6924 38.4C16.0124 38.76 16.4791 38.9733 16.9991 38.9733H17.0524C18.1991 38.9733 18.9857 38.1333 18.9857 36.9333ZM12.1991 38.8133C12.8791 38.8133 13.2924 38.7067 13.7057 38.4L13.3457 39.4H10.1057C10.4124 39.24 10.4657 39.08 10.4657 38.4V35.2667C10.4657 34.5867 10.4124 34.4267 10.1057 34.2667H12.7191C12.8791 34.2667 12.9191 34.2667 13.0257 34.2133V35.16C12.7724 34.8933 12.5591 34.84 12.0391 34.84C11.6657 34.84 11.4657 34.84 11.2524 34.8933V36.36H12.2924C12.3991 36.36 12.4524 36.3067 12.5591 36.3067V37.0933C12.3991 36.9333 12.2924 36.88 11.9324 36.88H11.2524V38.76C11.6124 38.8133 11.8257 38.8133 12.1991 38.8133V38.8133ZM8.94573 37.04C9.21239 37.3067 9.3724 37.56 9.3724 37.9333C9.3724 38.2933 9.15906 38.6667 8.8524 38.9733C8.47906 39.3467 7.90573 39.5467 7.22573 39.5467C6.75906 39.5467 6.34573 39.4933 5.86573 39.2933L5.6124 38.3467C6.12795 38.7644 6.70128 38.9733 7.3324 38.9733C8.0124 38.9733 8.47906 38.6133 8.47906 38.1333C8.47906 37.9333 8.3724 37.72 8.22573 37.6133C8.06573 37.4533 7.90573 37.36 7.22573 37.04C6.6524 36.7733 6.38573 36.6267 6.18573 36.4133C5.91906 36.2 5.75906 35.8933 5.75906 35.52C5.75906 34.6933 6.54573 34.16 7.6924 34.16C8.11906 34.16 8.47906 34.2133 8.90573 34.32V35.2133C8.58573 34.8933 8.11906 34.6933 7.6524 34.6933C7.06573 34.6933 6.6524 35 6.6524 35.4267C6.6524 35.84 6.86573 36 7.79906 36.4133C8.42573 36.7333 8.69239 36.88 8.94573 37.04V37.04ZM7.59906 33.8L6.34573 32.7067C6.70573 32.7067 7.11906 32.8533 7.59906 33.0667C8.06573 32.8533 8.5324 32.7067 8.90573 32.7067L7.59906 33.8ZM4.03906 34.2667H5.23906L3.14573 39.6533C2.4124 39.1733 2.3724 39.08 2.15906 38.4533L1.06573 35.5733C0.692396 34.5733 0.692396 34.5333 0.385729 34.2667H1.5324V34.3733C1.5324 34.48 1.58573 34.68 1.74573 35L2.99906 38.5067L4.0924 35.5733C4.30573 35.1067 4.35906 34.8933 4.35906 34.7333C4.35906 34.48 4.2524 34.3733 4.03906 34.2667V34.2667ZM44.8391 49.2267C44.8391 49.1733 44.8391 49.12 44.7324 48.8L44.2657 47.6H42.2791L41.8524 48.8C41.7457 48.96 41.7457 49.12 41.7457 49.2267C41.7457 49.3867 41.7991 49.4267 42.0124 49.5333H40.5991C40.9724 49.3333 41.0657 49.1733 41.3324 48.4933L42.6924 45.0933C42.7457 44.9333 42.7991 44.84 42.7991 44.7333C42.7991 44.5733 42.7457 44.52 42.5324 44.4133H43.7857L45.4124 48.4933C45.6657 49.12 45.8257 49.3333 46.1991 49.5333H44.5724C44.7857 49.4267 44.8391 49.3867 44.8391 49.2267V49.2267ZM44.0524 47.1333L43.2657 45.0933L42.4791 47.1333H44.0524ZM43.2657 43.8933L42.7991 44L43.2657 43.68L44.5191 42.8L44.9457 43.3733L43.2657 43.8933ZM38.9724 44.4133H40.3857C40.0257 44.6267 39.9724 44.8267 39.9724 45.36V49.8C39.5591 49.6933 39.1857 49.4267 38.8791 48.96L36.1591 45.5067V48.6533C36.1591 49.1733 36.2657 49.32 36.5724 49.5333H35.1591C35.4791 49.32 35.5857 49.1733 35.5857 48.6533V45.36C35.5857 44.8267 35.4791 44.6267 35.1591 44.4133H36.3057C36.3591 44.52 36.3591 44.52 36.5191 44.7333L39.3991 48.3867V45.36C39.3991 44.8267 39.2924 44.6267 38.9724 44.4133V44.4133ZM34.6391 44.4133C34.6924 44.4133 34.7457 44.4133 34.7991 44.36L34.5324 45.3067C34.4257 45.0933 34.2791 44.9867 33.7991 44.9867C33.6391 44.9867 33.6391 44.9867 33.2791 45.04H33.1191V48.6533C33.1191 49.1733 33.2257 49.32 33.5457 49.5333H32.0257C32.2924 49.4267 32.3457 49.2267 32.3457 48.5467V45.04C32.1857 44.9867 31.9191 44.9867 31.7057 44.9867C31.2391 44.9867 31.0391 45.04 30.7191 45.3067L31.0391 44.36C31.0791 44.4133 31.2391 44.4133 31.3991 44.4133H34.6391ZM29.7724 45.04C30.3057 45.5067 30.6124 46.24 30.6124 46.9733C30.6124 48.4933 29.3057 49.6933 27.7457 49.6933H27.6924C26.1191 49.6933 24.8657 48.4933 24.8657 47.0267C24.8657 45.5067 26.0657 44.3067 27.7457 44.3067H27.7857C28.5191 44.3067 29.3057 44.5733 29.7724 45.04V45.04ZM29.7324 47.08C29.7324 46.5067 29.5191 45.9333 29.1457 45.5067C28.7857 45.0933 28.3191 44.8267 27.7457 44.8267H27.6924C27.1591 44.8267 26.6391 45.0933 26.2791 45.4C25.9591 45.7733 25.7591 46.3467 25.7591 46.8667C25.7591 47.4933 25.9591 48.0667 26.3857 48.5467C26.7457 48.9067 27.1591 49.12 27.7457 49.12C28.8924 49.12 29.7324 48.28 29.7324 47.08V47.08ZM23.6124 44.4133H24.7591L22.7191 49.8C21.9857 49.32 21.9324 49.2267 21.6791 48.6L20.6257 45.72C20.2657 44.7333 20.2657 44.68 19.9457 44.4133H21.1057V44.52C21.1057 44.6267 21.1546 44.8355 21.2524 45.1467L22.5591 48.6533L23.6657 45.72C23.8124 45.2533 23.8657 45.04 23.8657 44.88C23.8657 44.6267 23.7724 44.52 23.6124 44.4133V44.4133ZM20.5724 49.5333H18.9591C19.1724 49.4267 19.2257 49.3733 19.2257 49.2267C19.2257 49.1733 19.2257 49.12 19.0657 48.8L18.6391 47.6H16.6657L16.1857 48.8C16.1324 48.96 16.1324 49.12 16.1324 49.2267C16.1324 49.3733 16.1857 49.4267 16.3991 49.5333H14.9857C15.3457 49.32 15.4524 49.1733 15.6657 48.4933L17.0791 45.0933C17.1324 44.9333 17.1324 44.8267 17.1324 44.7333C17.1324 44.5733 17.0791 44.52 16.9191 44.4133H18.1724L19.7991 48.4933C20.0524 49.12 20.2124 49.32 20.5724 49.5333V49.5333ZM18.4391 47.1333L17.6524 45.0933L16.8124 47.1333H18.4391ZM14.8924 49.5333C14.4124 49.5867 14.3191 49.5867 14.1591 49.5867C13.7324 49.5867 13.4791 49.4267 12.9591 48.8C12.4791 48.28 12.0124 47.6 11.5991 46.8667C12.4791 46.7067 12.9057 46.3467 12.9057 45.7733C12.9057 45.2533 12.5324 44.88 11.9591 44.88C11.7991 44.88 11.6524 44.9333 11.3857 44.9333V48.5467C11.3857 49.2267 11.4391 49.3733 11.7457 49.5333H10.2924C10.5457 49.3733 10.5991 49.2267 10.5991 48.5467V45.4C10.5991 44.7333 10.5457 44.5733 10.2924 44.4133H12.1191C12.5857 44.4133 12.9591 44.52 13.2657 44.7333C13.5857 44.9333 13.7857 45.36 13.7857 45.72C13.7857 46.2933 13.2657 46.8667 12.4791 47.0267C13.6924 48.6 14.2657 49.2267 14.8924 49.5333ZM8.82573 45.04C9.39906 45.5067 9.71906 46.1867 9.71906 46.92C9.71906 47.9733 9.1324 48.9067 8.19906 49.28C7.98573 49.3733 7.78573 49.48 7.46573 49.48C7.10573 49.5333 6.67906 49.5333 6.15906 49.5333H4.90573C5.11906 49.32 5.1724 49.32 5.1724 49.2267C5.22573 49.0667 5.26573 48.8533 5.26573 48.5467V45.4C5.26573 44.7333 5.1724 44.5733 4.90573 44.4133H6.83906C7.0524 44.4133 7.2524 44.4133 7.46573 44.4667C7.98573 44.52 8.46573 44.7333 8.82573 45.04V45.04ZM8.87906 47.0267C8.87906 46.4533 8.66573 45.88 8.30573 45.5067C8.0924 45.3067 7.78573 45.0933 7.46573 45.04C7.19906 44.9333 6.99906 44.9333 6.7324 44.9333C6.47906 44.9333 6.31906 44.9333 6.0524 45.04V48.9067C6.26573 48.96 6.3724 48.96 6.62573 48.96C6.94573 48.96 7.19906 48.96 7.46573 48.9067C7.67906 48.8533 7.9324 48.7467 8.0924 48.6C8.61684 48.2267 8.87906 47.7022 8.87906 47.0267ZM2.9724 48.96C3.59906 48.96 4.0124 48.8533 4.58573 48.5467L4.1724 49.5333H0.0390625L2.91906 45.04C2.50573 44.9867 2.1324 44.9867 1.6124 44.9867C1.03906 44.9867 0.879062 45.04 0.359062 45.3067L0.719062 44.4133H4.1724L1.34573 48.9067C1.9324 48.96 2.55906 48.96 2.9724 48.96V48.96ZM42.9857 59.3733C42.9857 59.32 42.9324 59.2667 42.8257 58.9467L42.3591 57.7467H40.4257L39.9457 58.9467C39.8924 59.1067 39.8391 59.2667 39.8391 59.3733C39.8391 59.5333 39.9457 59.5733 40.1591 59.68H38.6924C39.0657 59.48 39.1724 59.32 39.4257 58.64L40.8391 55.24C40.8924 55.08 40.8924 54.9733 40.8924 54.88C40.8924 54.72 40.8391 54.6667 40.6791 54.56H41.8791L43.5591 58.64C43.8124 59.2667 43.9724 59.48 44.2924 59.68H42.6657C42.9324 59.5733 42.9857 59.5333 42.9857 59.3733V59.3733ZM42.1991 57.28L41.3591 55.24L40.5724 57.28H42.1991ZM35.8791 54.0933L34.6257 53C34.9857 53 35.3591 53.1467 35.8791 53.36C36.3457 53.1467 36.7724 53 37.1857 53L35.8791 54.0933ZM37.0791 54.56H38.4924C38.1857 54.7733 38.0791 54.9733 38.0791 55.4933V59.9467C37.6524 59.84 37.3457 59.5733 37.0257 59.1067L34.2657 55.6533V58.7867C34.2657 59.32 34.3591 59.4667 34.6791 59.68H33.3191C33.6391 59.4667 33.6791 59.32 33.6791 58.7867V55.4933C33.6791 54.9733 33.6391 54.7733 33.3191 54.56H34.4124C34.4657 54.6667 34.4657 54.6667 34.6257 54.8667L37.5057 58.5333V55.4933C37.5057 54.9733 37.4524 54.7733 37.0791 54.56V54.56ZM31.6924 54.56H32.9057L30.8124 59.9467C30.0791 59.4667 30.0257 59.3733 29.7591 58.7333L28.7191 55.8667C28.3591 54.8667 28.3591 54.8133 28.0391 54.56H29.1857V54.6667C29.1857 54.7644 29.2391 54.9733 29.3457 55.2933L30.6524 58.7867L31.7457 55.8667C31.9057 55.4 31.9591 55.1867 31.9591 55.0267C31.9591 54.7733 31.9057 54.6667 31.6924 54.56V54.56ZM27.3057 55.1867C27.7724 55.6533 28.0924 56.3867 28.0924 57.12C28.0924 58.64 26.8391 59.84 25.2124 59.84C23.5991 59.84 22.3457 58.64 22.3457 57.1733C22.3457 55.6533 23.5991 54.4533 25.2124 54.4533H25.3191C26.0524 54.4533 26.7857 54.72 27.3057 55.1867V55.1867ZM27.1991 57.2267C27.1991 56.6533 26.9991 56.08 26.6791 55.6533C26.2657 55.24 25.7857 54.9733 25.2124 54.9733H25.1591C24.6391 54.9733 24.1191 55.24 23.7591 55.5467C23.4391 55.92 23.2257 56.4933 23.2257 57.0133C23.2257 57.64 23.4391 58.2133 23.8524 58.6933C24.2257 59.0533 24.6391 59.2667 25.2124 59.2667C26.3724 59.2667 27.1991 58.4267 27.1991 57.2267V57.2267ZM22.3457 54.5067L22.0791 55.4533C21.9724 55.24 21.8257 55.1333 21.3457 55.1333C21.1857 55.1333 21.1857 55.1333 20.8257 55.1867H20.7191V58.7867C20.7191 59.32 20.7724 59.4667 21.0924 59.68H19.5724C19.8391 59.5733 19.9324 59.3733 19.9324 58.6933V55.1867C19.7857 55.1333 19.4657 55.1333 19.3057 55.1333C18.7857 55.1333 18.5857 55.1867 18.2657 55.4533L18.5857 54.5067C18.6257 54.56 18.7857 54.56 18.9457 54.56H22.1857C22.2391 54.56 22.2924 54.56 22.3457 54.5067V54.5067ZM20.3057 54.0933L19.0524 52.9867C19.4124 52.9867 19.8391 53.1467 20.3057 53.36C20.7724 53.1467 21.2391 52.9867 21.6124 52.9867L20.3057 54.0933ZM18.1591 58.2267C18.1591 58.5867 17.9457 58.96 17.6391 59.2667C17.2791 59.64 16.6924 59.84 16.0124 59.84C15.5457 59.84 15.1324 59.8 14.6524 59.5867L14.3991 58.64C14.9235 59.0578 15.4968 59.2667 16.1191 59.2667C16.7991 59.2667 17.2791 58.9067 17.2791 58.44C17.2791 58.2267 17.1724 58.0133 17.0124 57.9067C16.8524 57.76 16.6391 57.6533 16.0124 57.3333C15.4391 57.08 15.1857 56.92 14.9724 56.7067C14.7057 56.5067 14.5591 56.1867 14.5591 55.8267C14.5591 54.9867 15.3324 54.4667 16.4924 54.4667C16.9057 54.4667 17.2791 54.52 17.6924 54.6267V55.5067C17.3724 55.2 16.9057 54.9867 16.4391 54.9867C15.8124 54.9867 15.3857 55.2933 15.3857 55.72C15.3857 56.1333 15.6524 56.2933 16.5991 56.7067C17.2257 57.0267 17.4791 57.1867 17.6924 57.3333C17.9991 57.6 18.1591 57.8667 18.1591 58.2267V58.2267ZM13.5057 55.56V58.6933C13.5057 59.3733 13.5591 59.5333 13.8257 59.6933H12.3591C12.6791 59.5333 12.7191 59.3733 12.7191 58.6933V55.56C12.7191 54.88 12.6791 54.72 12.3591 54.5733H13.8257C13.5591 54.72 13.5057 54.88 13.5057 55.56ZM10.9991 55.2C11.4657 55.6667 11.7857 56.4 11.7857 57.1333C11.7857 58.64 10.5324 59.84 8.90573 59.84C7.34573 59.84 6.0924 58.64 6.0924 57.1867C6.0924 55.6667 7.2924 54.4667 8.90573 54.4667H9.01239C9.74573 54.4667 10.5324 54.72 10.9991 55.2V55.2ZM10.8924 57.2267C10.8924 56.6533 10.7324 56.08 10.3724 55.6667C10.0124 55.2533 9.5324 54.9867 8.90573 54.9867C8.38573 54.9867 7.8124 55.2533 7.4924 55.56C7.1324 55.9333 6.91906 56.5067 6.91906 57.0267C6.91906 57.6533 7.18573 58.2267 7.54573 58.6933C7.91906 59.0667 8.38573 59.2667 8.90573 59.2667H8.95906C10.1057 59.2667 10.8924 58.44 10.8924 57.2267ZM5.66573 55.9333C5.66573 56.76 4.87906 57.3867 3.94573 57.3867C3.67906 57.3867 3.5724 57.3867 3.3724 57.28C3.83906 57.2267 4.10573 57.1333 4.35906 56.92C4.62573 56.6533 4.78573 56.4 4.78573 56.08C4.78573 55.4533 4.35906 55.0933 3.62573 55.0933C3.42573 55.0933 3.31906 55.1467 3.10573 55.2V58.8C3.10573 59.32 3.2124 59.5333 3.51906 59.6933H1.95906C2.26573 59.5333 2.31906 59.3733 2.31906 58.6933V55.56C2.31906 54.88 2.26573 54.72 1.95906 54.5733H3.83906C4.2524 54.5733 4.5724 54.6267 4.82573 54.7733C5.35906 54.9867 5.66573 55.4533 5.66573 55.9333V55.9333Z" fill="#595B61"/>
</g>
<defs>
<clipPath id="clip0_2730_7135">
<rect width="46.2667" height="60" fill="white"/>
</clipPath>
</defs>
</svg>
